<?xml version="1.0" standalone="no"?>
<!DOCTYPE svg PUBLIC "-//W3C//DTD SVG 20010904//EN"
 "http://www.w3.org/TR/2001/REC-SVG-20010904/DTD/svg10.dtd">
<svg version="1.0" xmlns="http://www.w3.org/2000/svg"
 width="700.000000pt" height="700.000000pt" viewBox="0 0 700.000000 700.000000"
 preserveAspectRatio="xMidYMid meet">
<metadata>
Created by potrace 1.11, written by Peter Selinger 2001-2013
</metadata>
<g transform="translate(0.000000,700.000000) scale(0.100000,-0.100000)"
fill="#000000" stroke="none">
<path d="M3065 6985 c-45 -25 -66 -46 -85 -88 -25 -54 -18 -97 35 -218 26 -57
66 -153 91 -214 25 -60 49 -119 54 -130 5 -11 27 -67 49 -125 l39 -105 -41
-57 c-23 -32 -206 -275 -407 -540 -200 -266 -398 -529 -440 -585 -66 -89 -78
-101 -103 -100 -16 1 -32 6 -37 12 -9 12 -57 202 -65 260 -2 22 -7 60 -11 85
-11 87 -6 276 11 394 9 66 17 122 18 125 1 3 -2 8 -8 11 -19 10 -44 -176 -50
-370 -2 -64 -6 -129 -9 -145 -2 -17 -7 -52 -11 -80 -3 -27 -8 -66 -10 -85 -3
-19 -7 -60 -10 -90 -7 -65 -14 -92 -23 -88 -4 2 -113 57 -242 122 -336 171
-344 175 -352 167 -4 -3 -10 -24 -13 -46 -4 -22 -13 -80 -20 -130 -8 -49 -17
-110 -20 -135 -4 -37 -35 -254 -50 -350 -15 -104 -17 -110 -34 -110 -21 0 -61
-40 -61 -61 0 -8 -8 -15 -17 -15 -10 -1 -61 -4 -113 -8 -175 -13 -204 -18
-164 -32 41 -15 369 -157 377 -163 9 -9 14 -32 23 -118 3 -37 10 -91 13 -119
l7 -51 -65 -19 c-296 -83 -890 -305 -1175 -438 -73 -34 -100 -52 -116 -78 -72
-118 5 -262 140 -260 32 0 78 15 160 52 123 55 354 150 485 198 44 17 87 33
96 37 13 5 17 -3 23 -42 13 -100 19 -131 52 -259 21 -86 31 -145 27 -167 -4
-27 -1 -37 16 -49 26 -18 121 -252 109 -270 -21 -34 -1 -76 38 -82 9 -1 22
-13 29 -27 85 -154 195 -331 247 -394 5 -5 22 -28 39 -50 72 -93 121 -147 249
-276 74 -74 162 -157 195 -185 85 -69 84 -69 78 -93 -8 -31 16 -81 45 -92 16
-6 36 -6 59 2 33 10 38 8 146 -63 176 -117 301 -190 487 -286 160 -82 173 -91
175 -117 1 -33 46 -75 79 -75 13 0 34 9 48 19 24 19 25 19 73 -2 28 -11 52
-22 54 -23 5 -4 -87 -209 -176 -390 -67 -138 -77 -166 -77 -211 2 -144 178
-216 279 -115 53 53 282 555 409 896 113 304 237 710 281 924 2 9 13 61 25
116 28 129 70 355 84 461 18 133 36 282 41 360 4 50 9 92 10 95 9 15 19 330
19 578 l0 284 66 -7 c36 -3 83 -8 105 -10 198 -22 196 -22 400 -56 392 -65
736 -154 1122 -288 345 -120 497 -183 850 -352 90 -42 176 -80 192 -84 78 -17
174 54 186 138 8 55 -6 102 -42 141 -42 46 -477 250 -793 373 -417 162 -975
322 -1320 379 -14 3 -36 7 -50 9 -33 7 -62 12 -140 25 -36 5 -76 12 -90 14
-40 7 -108 16 -210 27 -52 5 -111 12 -130 14 -19 2 -64 7 -100 11 -36 3 -66 7
-68 9 -2 2 -5 20 -7 42 -6 67 -21 203 -31 280 l-6 42 100 31 101 31 -19 35
c-11 19 -23 51 -26 72 l-6 38 -80 -28 c-95 -33 -93 -33 -95 -8 -1 12 -11 69
-23 128 -26 134 -28 146 -39 207 -11 58 -73 323 -97 410 -8 33 -17 67 -19 75
-46 192 -183 612 -285 875 -24 61 -49 127 -56 147 -24 65 -165 391 -187 431
-12 21 -36 47 -53 58 -45 28 -121 34 -159 14z m253 -1080 c90 -266 202 -652
202 -692 0 -6 -33 -22 -72 -36 -40 -14 -158 -55 -263 -91 -104 -37 -235 -82
-290 -101 -102 -35 -168 -58 -399 -139 -71 -25 -131 -44 -133 -43 -1 2 119
176 267 388 148 211 274 391 280 399 18 26 285 404 315 446 18 25 33 37 36 30
4 -6 29 -78 57 -161z m221 -762 c9 -33 25 -102 36 -153 20 -94 62 -317 70
-375 3 -22 10 -62 15 -90 5 -27 12 -72 15 -100 3 -27 7 -61 9 -75 18 -113 28
-230 19 -230 -4 -1 -127 -3 -273 -5 -268 -5 -294 -6 -475 -20 -191 -16 -140
-51 -405 280 -128 160 -236 295 -241 300 -4 6 -2 29 5 50 12 35 20 42 62 57
27 9 146 50 264 92 118 41 307 106 420 146 313 109 321 111 390 136 36 12 68
23 72 23 4 1 12 -16 17 -36z m-1949 -112 c36 -31 70 -60 76 -66 6 -5 33 -28
60 -50 56 -46 246 -208 287 -244 21 -19 26 -31 23 -50 -3 -15 -8 -52 -12 -85
-3 -32 -10 -68 -14 -80 -5 -11 -69 -102 -143 -201 -171 -230 -156 -225 -316
-105 l-118 88 3 98 c14 509 25 760 33 783 2 7 56 -33 121 -88z m885 -750 c61
-51 130 -110 155 -131 25 -21 56 -47 69 -57 l24 -19 -99 -13 c-162 -20 -168
-21 -190 -26 -12 -3 -50 -9 -85 -14 -35 -6 -102 -17 -149 -26 -47 -8 -101 -18
-120 -21 -19 -3 -43 -7 -52 -10 -10 -3 -18 -3 -18 1 0 3 27 94 61 203 80 258
109 355 109 360 0 2 42 -32 93 -75 50 -44 142 -121 202 -172z m-493 -103 c-6
-46 -14 -107 -17 -137 -8 -62 -13 -93 -17 -96 -2 -1 -24 -6 -50 -12 -44 -9
-51 -8 -80 14 -18 13 -32 29 -30 35 2 6 28 47 59 92 31 45 74 107 96 139 22
31 42 55 45 53 2 -3 -1 -42 -6 -88z m-427 -178 c55 -23 103 -44 107 -46 3 -2
-1 -22 -9 -43 -15 -38 -19 -40 -87 -57 -39 -9 -88 -23 -108 -30 l-38 -13 4
102 c2 56 4 113 5 126 1 17 4 21 14 13 6 -5 57 -29 112 -52z m199 -89 c3 -5
-3 -11 -15 -14 -16 -4 -18 -3 -8 9 13 16 16 17 23 5z m1978 -139 c5 -5 -60
-65 -144 -134 -84 -70 -166 -137 -182 -151 -26 -23 -31 -24 -60 -12 -20 9 -37
10 -48 4 -13 -7 -26 2 -61 44 -81 96 -187 232 -187 239 0 4 8 7 18 6 23 0 367
14 369 16 7 5 289 -6 295 -12z m-593 -162 c108 -134 120 -153 110 -171 -6 -12
-8 -34 -5 -50 6 -30 10 -25 -169 -173 -229 -189 -301 -244 -308 -237 -6 6 -20
6 -35 0 -22 -8 -68 17 -418 233 -317 195 -394 247 -394 264 0 22 -32 58 -43
48 -5 -5 -27 36 -27 51 0 4 125 33 275 64 102 21 114 23 220 41 33 5 74 12 90
15 17 3 44 7 60 10 39 6 165 22 244 31 35 3 87 9 115 13 28 3 76 7 107 9 l56
3 122 -151z m599 108 c2 -41 1 -486 -3 -553 -10 -203 -7 -190 -33 -190 -18 0
-56 41 -174 188 -126 157 -148 190 -138 202 8 9 10 29 7 49 -5 34 -3 37 101
123 59 48 130 106 157 127 28 22 56 46 63 53 17 16 18 16 20 1z m-1923 -168
c4 -11 5 -33 4 -48 -1 -15 0 -36 4 -47 3 -11 9 -42 12 -70 2 -27 7 -66 10 -85
4 -33 12 -108 20 -195 2 -22 6 -56 8 -75 3 -19 8 -62 12 -95 3 -33 8 -75 11
-92 2 -18 2 -33 0 -33 -2 0 -48 77 -102 172 -140 242 -140 243 -201 348 -31
52 -64 109 -74 126 l-19 32 62 16 c35 10 101 28 148 41 106 29 98 29 105 5z
m-328 -187 c17 -60 52 -179 78 -266 35 -121 44 -162 35 -172 -21 -25 -8 -69
25 -83 23 -10 42 -35 76 -100 25 -48 78 -149 118 -224 40 -76 68 -138 62 -138
-5 0 -16 9 -23 19 -7 10 -43 52 -79 92 -36 41 -86 97 -110 124 -132 151 -165
189 -174 199 -6 6 -73 83 -150 171 -77 88 -142 162 -145 165 -3 3 -33 37 -68
76 -45 52 -62 79 -62 100 0 28 4 30 108 62 59 19 141 44 182 57 41 13 80 24
85 24 6 1 24 -47 42 -106z m1849 -36 c29 1 42 -12 175 -177 199 -248 208 -201
-96 -495 -423 -409 -460 -444 -462 -437 -2 4 -26 90 -54 192 -27 102 -52 190
-53 195 -2 6 -6 24 -11 40 -4 17 -20 77 -36 134 -26 93 -27 106 -14 121 8 9
13 26 10 37 -2 16 7 29 33 50 20 15 46 35 57 45 11 9 99 82 195 162 150 124
179 143 200 138 14 -4 39 -6 56 -5z m-594 -450 c7 -8 53 -161 102 -342 84
-307 89 -329 75 -354 -20 -36 -32 -34 -369 33 -392 78 -351 63 -401 152 -39
72 -40 76 -23 89 11 8 145 108 299 224 154 116 285 210 292 211 6 0 18 -6 25
-13z m969 -7 c6 0 8 -8 5 -17 -2 -10 -7 -47 -11 -83 -5 -56 -18 -163 -30 -250
-3 -22 -12 -79 -31 -195 -11 -71 -45 -243 -55 -278 -8 -29 -14 -37 -27 -33
-14 5 -169 34 -277 53 -31 5 -34 6 -75 16 -14 3 -54 11 -90 18 -51 9 -68 17
-76 34 -9 19 -4 29 35 72 25 28 89 100 141 159 52 60 99 114 105 120 5 6 86
97 180 203 108 122 174 190 183 186 7 -3 18 -5 23 -5z m-1271 -663 c91 -20
208 -45 260 -57 52 -11 106 -22 119 -25 13 -2 25 -6 28 -8 2 -2 -74 -79 -169
-170 -95 -91 -175 -168 -179 -171 -5 -5 -235 384 -251 425 -4 9 -11 20 -17 24
-6 3 -11 11 -11 17 0 12 6 11 220 -35z m725 -148 c28 -5 67 -11 89 -14 21 -2
46 -6 55 -9 9 -3 36 -7 61 -10 25 -4 59 -8 75 -11 17 -3 46 -7 65 -11 73 -11
70 -4 44 -112 -34 -147 -93 -355 -101 -363 -7 -6 -72 -25 -153 -45 -8 -2 -38
-10 -67 -18 -45 -12 -54 -12 -64 0 -6 8 -17 14 -24 14 -9 0 -45 126 -71 255
-1 6 -18 72 -37 148 l-34 138 26 29 c28 30 24 30 136 9z m-219 -31 c27 -12 29
-17 30 -78 5 -205 15 -668 18 -747 1 -51 1 -93 0 -93 -1 0 -46 51 -100 113
-54 61 -101 114 -104 117 -75 67 -265 347 -254 374 3 6 42 41 87 78 45 37 102
85 127 106 52 45 164 141 166 142 1 0 15 -6 30 -12z m329 -706 c44 -30 84 -58
88 -62 7 -6 -108 -333 -135 -384 -10 -18 -15 -15 -65 40 -30 32 -66 74 -80 92
l-25 32 32 143 c17 78 34 152 37 165 6 24 40 44 58 34 6 -3 46 -31 90 -60z"/>
<path d="M4487 5698 c-35 -36 -307 -483 -307 -505 0 -10 6 -26 13 -35 6 -9
140 -71 297 -138 157 -67 299 -128 315 -135 296 -130 331 -141 367 -112 9 6
62 86 118 177 111 179 144 231 170 270 28 41 32 75 12 99 -22 26 -894 401
-933 401 -18 0 -39 -9 -52 -22z"/>
<path d="M5425 5098 c-176 -280 -178 -282 -153 -289 76 -19 183 11 230 64 57
65 75 166 44 242 -17 39 -43 75 -56 75 -4 0 -33 -42 -65 -92z m115 -37 c0 -14
-5 -33 -10 -41 -8 -13 -11 -13 -26 2 -20 20 -26 65 -12 92 11 19 11 19 29 -3
11 -13 19 -35 19 -50z"/>
<path d="M4392 4928 l-43 -83 43 -18 c24 -10 53 -27 65 -39 l22 -20 45 91 c25
50 46 93 46 96 0 7 -109 55 -124 55 -6 0 -31 -37 -54 -82z"/>
<path d="M4277 4792 c-76 -35 -104 -112 -68 -185 30 -60 63 -81 127 -80 63 1
95 21 124 79 20 40 21 65 4 116 -21 66 -116 102 -187 70z"/>
<path d="M5671 1794 c-20 -26 -19 -37 8 -99 5 -11 48 -119 96 -240 47 -121 94
-226 103 -232 33 -26 85 -2 84 39 0 35 -200 531 -219 546 -26 19 -50 14 -72
-14z"/>
<path d="M5492 1674 c-26 -18 -29 -57 -8 -100 8 -16 53 -128 101 -249 47 -121
93 -226 102 -232 38 -29 96 4 86 49 -3 13 -50 137 -105 276 -110 277 -122 294
-176 256z"/>
<path d="M5296 1544 c-9 -8 -16 -24 -16 -34 0 -16 102 -288 140 -375 5 -11 23
-55 40 -97 19 -47 39 -79 50 -83 27 -9 68 14 73 42 3 15 -31 112 -94 271 -54
136 -104 257 -111 270 -14 26 -59 30 -82 6z"/>
<path d="M5117 1433 c-10 -3 -22 -16 -28 -30 -8 -22 7 -66 91 -282 56 -141
110 -264 120 -275 24 -24 67 -15 82 19 9 20 -3 57 -85 267 -53 134 -99 252
-103 263 -14 37 -37 48 -77 38z"/>
<path d="M4918 1318 c-16 -5 -29 -16 -29 -24 -1 -8 -2 -20 -3 -26 -1 -7 13
-53 32 -103 19 -49 43 -115 54 -145 12 -30 24 -64 29 -75 5 -11 25 -63 44
-115 40 -106 42 -109 75 -115 29 -6 60 20 60 51 0 18 -135 391 -185 511 -17
40 -42 53 -77 41z"/>
<path d="M4706 1207 c-10 -8 -18 -24 -18 -38 0 -29 176 -525 193 -545 19 -23
66 -17 84 10 14 21 14 28 0 72 -9 27 -20 58 -24 69 -5 11 -14 34 -19 50 -75
216 -127 354 -138 373 -16 25 -51 29 -78 9z"/>
<path d="M4512 1114 c-13 -9 -22 -26 -22 -41 0 -23 27 -112 51 -168 4 -11 15
-40 23 -65 42 -127 107 -304 117 -316 12 -15 47 -18 65 -6 36 24 33 43 -36
241 -136 391 -120 354 -155 365 -12 3 -30 -1 -43 -10z"/>
<path d="M4317 1034 c-18 -10 -27 -23 -27 -38 0 -41 171 -536 192 -556 26 -24
70 -13 82 21 7 22 -56 230 -156 510 -23 67 -49 84 -91 63z"/>
<path d="M4100 963 c-11 -8 -20 -25 -20 -38 0 -33 177 -547 192 -557 35 -22
88 3 88 42 0 10 -23 85 -51 167 -28 81 -64 188 -80 237 -16 48 -36 103 -45
121 -18 38 -53 50 -84 28z"/>
</g>
</svg>
