<?xml version="1.0" encoding="UTF-8" standalone="no"?>
<svg
   xmlns:osb="http://www.openswatchbook.org/uri/2009/osb"
   xmlns:dc="http://purl.org/dc/elements/1.1/"
   xmlns:cc="http://creativecommons.org/ns#"
   xmlns:rdf="http://www.w3.org/1999/02/22-rdf-syntax-ns#"
   xmlns:svg="http://www.w3.org/2000/svg"
   xmlns="http://www.w3.org/2000/svg"
   xmlns:xlink="http://www.w3.org/1999/xlink"
   xmlns:sodipodi="http://sodipodi.sourceforge.net/DTD/sodipodi-0.dtd"
   xmlns:inkscape="http://www.inkscape.org/namespaces/inkscape"
   id="Layer_1"
   data-name="Layer 1"
   viewBox="0 0 643.31264 511.55061"
   width="395.26761"
   height="306.00037"
   class="illustration"
   version="1.1"
   sodipodi:docname="about-us.svg"
   inkscape:version="1.0.2 (1.0.2+r75+1)">
  <metadata
     id="metadata560">
    <rdf:RDF>
      <cc:Work
         rdf:about="">
        <dc:format>image/svg+xml</dc:format>
        <dc:type
           rdf:resource="http://purl.org/dc/dcmitype/StillImage" />
        <dc:title>5. Consulting</dc:title>
      </cc:Work>
    </rdf:RDF>
  </metadata>
  <sodipodi:namedview
     pagecolor="#ffffff"
     bordercolor="#666666"
     borderopacity="1"
     objecttolerance="10"
     gridtolerance="10"
     guidetolerance="10"
     inkscape:pageopacity="0"
     inkscape:pageshadow="2"
     inkscape:window-width="2488"
     inkscape:window-height="1043"
     id="namedview558"
     showgrid="false"
     inkscape:zoom="1.9064153"
     inkscape:cx="-86.415548"
     inkscape:cy="122.19136"
     inkscape:window-x="72"
     inkscape:window-y="0"
     inkscape:window-maximized="1"
     inkscape:current-layer="Layer_1"
     inkscape:document-rotation="0"
     fit-margin-top="0"
     fit-margin-left="0"
     fit-margin-right="0"
     fit-margin-bottom="0"
     inkscape:pagecheckerboard="true" />
  <defs
     id="defs401">
    <linearGradient
       id="linear-gradient"
       x1="296.85001"
       y1="197.86"
       x2="296.20999"
       y2="285.88"
       gradientUnits="userSpaceOnUse">
      <stop
         offset="0.01"
         id="stop1637" />
      <stop
         offset="0.08"
         stop-opacity="0.69"
         id="stop1639" />
      <stop
         offset="0.21"
         stop-opacity="0.32"
         id="stop1641" />
      <stop
         offset="1"
         stop-opacity="0"
         id="stop1643" />
    </linearGradient>
    <linearGradient
       id="linear-gradient-36"
       x1="296.85001"
       y1="197.86"
       x2="296.20999"
       y2="285.88"
       gradientUnits="userSpaceOnUse">
      <stop
         offset="0.01"
         id="stop383" />
      <stop
         offset="0.08"
         stop-opacity="0.69"
         id="stop385" />
      <stop
         offset="0.21"
         stop-opacity="0.32"
         id="stop387" />
      <stop
         offset="1"
         stop-opacity="0"
         id="stop389" />
    </linearGradient>
    <linearGradient
       id="linear-gradient-2"
       x1="536.88"
       y1="409.89999"
       x2="567.57001"
       y2="409.89999"
       xlink:href="#linear-gradient-36"
       gradientTransform="translate(-24.481415,-45.52822)" />
    <linearGradient
       id="linear-gradient-3"
       x1="467.94"
       y1="363.87"
       x2="468.42001"
       y2="525.66998"
       xlink:href="#linear-gradient-36" />
    <linearGradient
       id="linear-gradient-4"
       x1="538.08002"
       y1="410.25"
       x2="412.92999"
       y2="432.64999"
       xlink:href="#linear-gradient-36" />
    <linearGradient
       id="linear-gradient-5"
       x1="3846.8601"
       y1="388.25"
       x2="4166.2798"
       y2="374.09"
       gradientTransform="matrix(-1,0,0,1,4404.37,0)"
       xlink:href="#linear-gradient-36" />
    <linearGradient
       id="linear-gradient-6"
       x1="556.84003"
       y1="398.98999"
       x2="472.82999"
       y2="449.67001"
       xlink:href="#linear-gradient-36" />
    <linearGradient
       id="linear-gradient-7"
       x1="3943.5901"
       y1="409.89999"
       x2="3974.28"
       y2="409.89999"
       gradientTransform="matrix(-1,0,0,1,4099.55,0)"
       xlink:href="#linear-gradient-36" />
    <linearGradient
       id="linear-gradient-8"
       x1="3874.6499"
       y1="363.87"
       x2="3875.1299"
       y2="525.66998"
       gradientTransform="matrix(-1,0,0,1,4099.55,0)"
       xlink:href="#linear-gradient-36" />
    <linearGradient
       id="linear-gradient-9"
       x1="3944.79"
       y1="410.25"
       x2="3819.6399"
       y2="432.64999"
       gradientTransform="matrix(-1,0,0,1,4099.55,0)"
       xlink:href="#linear-gradient-36" />
    <linearGradient
       id="linear-gradient-10"
       x1="3963.5601"
       y1="398.98999"
       x2="3879.54"
       y2="449.67001"
       gradientTransform="matrix(-1,0,0,1,4099.55,0)"
       xlink:href="#linear-gradient-36" />
    <linearGradient
       inkscape:collect="always"
       xlink:href="#linearGradient1158"
       id="linearGradient3110"
       x1="375.4241"
       y1="302.33813"
       x2="532.69263"
       y2="302.33813"
       gradientUnits="userSpaceOnUse"
       gradientTransform="matrix(0.35640254,0,0,0.35640237,125.75062,62.673357)" />
    <linearGradient
       id="linearGradient1158"
       osb:paint="solid">
      <stop
         style="stop-color:#e30000;stop-opacity:0;"
         offset="0"
         id="stop1156" />
    </linearGradient>
  </defs>
  <title
     id="title403">5. Consulting</title>
  <path
     d="m 69.938585,69.97178 c -34.85,40.57 -49.87,94.3 -60.0000003,146.82 a 1077,1077 0 0 0 -18.65,164.68 c -1.17,32.45 0.73,68.86 24.3200003,91.16 8.82,8.35 19.91,13.84 30.98,18.84 19.73,8.94 40.25,16.83 61.779995,19.25 35.68,4 71.13,-7.19 105.28,-18.3 60.16,-19.57 122.71,-39.55 185.48,-31.63 29.11,3.67 57.15,13.27 86.08,18.18 28.93,4.91 60.26,4.68 85.66,-10 17.67,-10.23 31,-26.64 41.52,-44.14 23.61,-39.27 34.76,-85 38.33,-130.71 1.76,-22.57 1.73,-45.44 -2.64,-67.65 -5,-25.38 -15.52,-49.29 -26.14,-72.87 -13,-28.93 -26.47,-57.94 -45.06,-83.65 -18.59,-25.71 -42.85,-48.2 -72.36,-59.81 -56.17,-22.07 -117.59,-2.5500002 -174.35,6.33 -29,4.51 -59,7.42 -87.94,0.89 -13.93,-3.14 -25.11,-9.6000002 -39.4,-10.1100002 -15.07,-0.53 -31.22,3.0000002 -45.6,7.1500002 -33.57,9.69 -64.479995,29 -87.289995,55.57 z"
     fill="#68e1fd"
     opacity="0.18"
     style="isolation:isolate;fill:#00467b;fill-opacity:1"
     id="path405" />
  <rect
     x="263.77859"
     y="212.35179"
     width="47.700001"
     height="38.959999"
     fill="#68e1fd"
     id="rect407" />
  <rect
     x="263.77859"
     y="212.35179"
     width="47.700001"
     height="38.959999"
     fill="url(#linear-gradient)"
     id="rect409"
     style="fill:#00467b;fill-opacity:1" />
  <rect
     x="215.46858"
     y="132.42178"
     width="150.53"
     height="95.290001"
     rx="14.38"
     fill="#ffffff"
     id="rect411" />
  <rect
     x="176.03857"
     y="250.87178"
     width="253.37"
     height="8.0699997"
     fill="#ffffff"
     id="rect413" />
  <rect
     x="176.03857"
     y="255.57179"
     width="253.37"
     height="3.3699999"
     fill="#d9dbe2"
     id="rect415" />
  <ellipse
     cx="319.04858"
     cy="414.87177"
     rx="270.48001"
     ry="31.16"
     fill="#68e1fd"
     opacity="0.18"
     style="isolation:isolate;fill:#00467b;fill-opacity:1"
     id="ellipse417" />
  <path
     d="m 520.58858,318.38178 c 0,0 27.82,89.74 24.8,91.94 -3.02,2.2 -4.93,-3.78 -4.93,-3.78 l -28.06,-83.4 z"
     fill="#68e1fd"
     id="path419"
     style="fill:#00467b;fill-opacity:1" />
  <path
     d="m 460.78858,328.74178 -0.26,0.65 -31.7,81.33 a 10.17,10.17 0 0 1 -2.13,3.38 2.06,2.06 0 0 1 -3,0.18 c -2.86,-2.34 26.92,-85.81 26.92,-85.81 z"
     fill="#68e1fd"
     id="path421"
     style="fill:#00467b;fill-opacity:1" />
  <path
     d="m 484.51858,322.77178 c 0,0 -1,93.94 -4.53,95.11 -3.53,1.17 -3.53,-5.11 -3.53,-5.11 l -1.2,-88 z"
     fill="#68e1fd"
     id="path423"
     style="fill:#00467b;fill-opacity:1" />
  <path
     d="m 515.61858,319.47178 c 0,0 4.70207,13.5099 10.21496,30.01435 8.47695,25.37825 18.87103,57.83683 17.03504,59.14565 -3.03,2.16 -2.41,-2.1 -2.41,-2.1 l -28.06,-83.4 z"
     fill="url(#linear-gradient-2)"
     id="path425"
     sodipodi:nodetypes="cssccc"
     style="fill:url(#linear-gradient-2)" />
  <path
     d="m 460.51858,329.39178 -31.7,81.33 a 10.17,10.17 0 0 1 -2.13,3.38 c 0.11,-9.32 27.09,-84.86 27.09,-84.86 z"
     fill="url(#linear-gradient-3)"
     id="path427"
     style="fill:#00467b;fill-opacity:1" />
  <path
     d="m 484.51858,322.77178 c 0,0 -1,93.94 -4.53,95.11 -3.53,1.17 -1.35,-7.08 -1.35,-7.08 l 1.25,-87 z"
     fill="url(#linear-gradient-4)"
     id="path429"
     style="fill:#00467b;fill-opacity:1" />
  <path
     d="m 546.03858,296.91178 c -6.64,15.31 -21.58,25.87 -37.59,30.61 -12.48,3.69 -25.63,4.26 -38.71,3.51 q -5.49,-0.29 -11,-0.83 c -6.4,-0.65 -12.89,-1.48 -18.88,-3.82 -5.99,-2.34 -11.57,-6.38 -14.61,-12.09 a 29.23,29.23 0 0 1 -3,-12.06 c -0.63,-10.74 2.77,-22.16 11,-29 6.46,-5.4 14.89,-7.5 21.59,-12.51 7.5,-5.63 15.2,-10.66 23.14,-15.72 7.94,-5.06 16,-10.17 24.88,-13.39 8.88,-3.22 18.78,-4.43 27.76,-1.58 3.11,1 7.9,3.41 12.59,14.89 6.81,16.41 9.89,35.7 2.83,51.99 z"
     fill="#2f3653"
     id="path431" />
  <path
     d="m 496.86858,188.17178 c -3.19,4.37 -12.91,8.59 -12.91,8.59 -1.12,-4.32 1.27,-5.92 1.27,-5.92 2.49,0.22 5.76,-5.85 4.69,-7.76 -1.32,-2.38 -3.15,-1.53 -4.37,-0.51 a 11.54,11.54 0 0 1 -4.41,-8.15 c -0.16,-1.87 3.07,-7.15 -3.12,-9.44 -6.19,-2.29 -14.91,0 -14.91,0 0,0 -2.25,-5.77 5,-8.53 16.27,-6.22 35.61,4.39 34.53,22.62 -0.29,4.94 -0.62,10.55 2.8,14.12 1.87,1.94 4.51,2.88 7,3.86 3.25,1.26 6.55,2.79 8.83,5.44 2.28,2.65 3.25,6.71 1.44,9.7 -0.86,1.43 -2.35,2.8 -2,4.43 a 4.61,4.61 0 0 0 1.25,1.91 26.46,26.46 0 0 1 6.87,14.51 18.94,18.94 0 0 1 -4.72,15.07 c -5,5.25 -13,6.62 -20.17,5.54 -5.8,-0.88 -11.54,-3.28 -15.48,-7.63 -6,-6.63 -6.75,-16.26 -8.42,-25 a 5.21,5.21 0 0 0 -1.24,-2.92 c -1.75,-1.64 -4.56,-0.31 -6.95,-0.37 -4.13,-0.09 -6.9,-4.62 -7,-8.74 -0.1,-4.12 1.57,-8 2.41,-12.09 0.84,-4.09 0.58,-8.81 -2.55,-11.5 -1.17,-1 -2.63,-1.63 -3.89,-2.53 -5.58,-4 -5.25,-13.23 -0.49,-18.19 4.76,-4.96 12.4,-6.18 19.17,-5 5.44,1 17.72,4 20.24,9 2.52,5 0.34,15.11 -2.87,19.49 z"
     fill="#fc682d"
     id="path433"
     style="fill:#ec610c;fill-opacity:1" />
  <path
     d="m 455.45858,214.22178 -26.23,27 -34.82,-18.36 a 25.87,25.87 0 0 0 -14.33,-3.83 c -0.52,0 -1.22,0.3 -1.1,0.8 0.12,0.5 0.7,0.54 0.79,1 0.09,0.46 -0.47,0.74 -0.93,0.84 l -8.32,1.85 c -1.22,0.28 -2.7,0.85 -2.77,2.1 a 2.73,2.73 0 0 0 1.25,2.06 c 5.49,4.57 13.19,5.57 20.31,4.91 a 7.25,7.25 0 0 1 2.08,0 6.76,6.76 0 0 1 1.92,0.81 86.47,86.47 0 0 1 7.81,4.89 c 6.83,4.8 12.94,10.57 19.87,15.23 a 9.94,9.94 0 0 0 4.82,2.05 10.54,10.54 0 0 0 4.51,-1.09 c 10,-4 20.25,-8.27 27.86,-15.89 a 7,7 0 0 0 1.62,-2.16 7.67,7.67 0 0 0 0.39,-2.57 q 0.15,-5.49 -0.14,-11 a 10.58,10.58 0 0 0 -1.07,-4.83 3.8,3.8 0 0 0 -4.2,-1.95"
     fill="#fdbaac"
     id="path435" />
  <path
     d="m 438.86858,242.70178 a 14.58,14.58 0 0 1 -2.75,1.66 c -2.12,0.89 -4.51,0.72 -6.81,0.66 a 61.59,61.59 0 0 0 -10.42,0.62 5.47,5.47 0 0 0 -2.44,0.77 2,2 0 0 0 -0.84,2.24 2.94,2.94 0 0 0 1,1.11 c 2.79,2.25 5.79,4.59 9.35,5 4.26,0.56 8.34,-1.7 12,-3.88 l 7.66,-4.41 a 8.21,8.21 0 0 0 2.92,-2.39 c 1.07,-1.65 1.32,-6.26 -1.28,-6.74 -2.13,-0.42 -6.74,4.13 -8.39,5.36 z"
     fill="#dea095"
     id="path437" />
  <path
     d="m 459.31858,207.47178 a 7.25,7.25 0 0 1 1.55,-0.32 c 2.64,-0.25 5.64,0.4 8.29,0.52 3.73,0.16 7.47,0.25 11.21,0.13 7.13,-0.21 18.83,-1 25.21,6.8 7.91,9.63 1.09,26.56 -4.43,39.26 -2,4.74 -3.06,20.09 -2,31.31 0,0 -22.2,7.77 -41.73,3.72 l -6.7,-25.14 c -0.37,-1.3 -1.53,-2.68 -2.1,-3.92 a 45.27,45.27 0 0 1 -3.36,-10.54 c -0.8,-4.2 -2,-11.19 -0.2,-15.23 0.27,-0.62 1.2,-1.1 1.28,-1.75 0.11,-0.9 -1.08,-2.4 -1.45,-3.21 a 48.2,48.2 0 0 1 -2.93,-8.14 2.13,2.13 0 0 1 -0.06,-1.34 2.24,2.24 0 0 1 0.76,-0.86 c 2.93,-2.35 5.87,-4.7 9,-6.82 2.13,-1.47 4.96,-3.65 7.66,-4.47 z"
     fill="#ffffff"
     id="path439" />
  <path
     d="m 484.04858,189.68178 c -1.48,4.71 -7.67,13 -14.75,11.09 a 9.12,9.12 0 0 1 -0.56,9.71 c 0,0 2.3,5.87 17.84,-2.81 0,0 -4.2,-0.35 -3.06,-9 a 18.62,18.62 0 0 1 3.06,-8.28 1.52,1.52 0 0 1 -2.53,-0.71 z"
     fill="#fdbaac"
     id="path441" />
  <path
     d="m 483.33858,192.05178 c 0,0 -3.41,14.49 -9.19,13.88 -5.78,-0.61 -5.41,-9.43 -5.41,-9.43 z"
     fill="#dea095"
     id="path443" />
  <path
     d="m 513.51858,219.85178 a 17.4,17.4 0 0 0 -3.7,-12.37 c -3.24,-3.78 -8.21,-5.48 -12.84,-7.32 -2,-0.78 -4.08,-1.79 -4.91,-3.73 -0.55,-1.28 -0.43,-2.74 -0.65,-4.12 -0.22,-1.38 -1,-2.88 -2.42,-3.07 a 3.26,3.26 0 0 0 -2.37,0.83 c -2.94,2.26 -3.88,6.41 -3.21,10.06 0.67,3.65 2.68,6.88 4.76,9.94 2.08,3.06 4.28,6.12 5.46,9.63 0.89,2.67 1.15,5.51 1.8,8.25 1.44,6 6.49,9.6 12.42,6.18 4.09,-2.37 5.37,-10.07 5.66,-14.28 z"
     fill="#fc682d"
     id="path445" />
  <path
     d="m 468.05858,156.47178 c 0,0 -9.42,0.55 -12.22,14.2 -2.8,13.65 10.81,13.42 10.81,13.42 l 8.27,-23.68 z"
     fill="#fc682d"
     id="path447" />
  <path
     d="m 474.33858,201.47178 c -8.53,0.71 -13.71,-7.25 -14.67,-17.65 -0.1,-1.14 -0.14,-2.3 -0.14,-3.49 a 42.56,42.56 0 0 1 1.16,-10.07 c 3.73,-16 26.46,-9.57 26.46,-9.57 17.81,7.99 2.01,39.55 -12.81,40.78 z"
     fill="#fdbaac"
     id="path449" />
  <path
     d="m 468.23858,160.33178 c 2.22,7.71 5.19,18.67 12.72,22.9 0.86,0.48 2.45,1.29 3.48,1.08 1.03,-0.21 1,-1.15 1.94,-2 a 2,2 0 0 1 2.27,-0.39 2.35,2.35 0 0 1 0.93,2 5.49,5.49 0 0 1 -2.64,4.71 13.52,13.52 0 0 0 -2.13,1.22 4.26,4.26 0 0 0 -1.26,2.78 7.45,7.45 0 0 0 3.68,7.12 1.05,1.05 0 0 0 0.51,0.16 1,1 0 0 0 0.56,-0.33 l 3.37,-3.08 a 27.93,27.93 0 0 0 4.31,-4.59 14,14 0 0 0 2.4,-7.75 c 0,-1.25 -0.5,-2.51 -0.48,-3.71 a 18,18 0 0 1 1.25,-4.6 16.31,16.31 0 0 0 1.14,-6 c -0.27,-4 -3.6,-7.18 -7.19,-9 -5.68,-2.81 -12.24,-3.13 -18.58,-3.2 a 9.61,9.61 0 0 0 -3.73,0.5 c -1.09,0.61 -1.54,1.81 -2.55,2.18 z"
     fill="#fc682d"
     id="path451"
     style="fill:#ec610c;fill-opacity:1" />
  <path
     d="m 483.33858,257.47178 6.51,14.3 c 0,0 14,-17.46 19.33,-36.31 4.66,-16.66 -3.6,-20.85 -3.6,-20.85 -6.32,-2.32 -10.61,6.69 -16.82,24.89 -3.42,9.97 -5.42,17.97 -5.42,17.97 z"
     fill="#fdbaac"
     id="path453" />
  <path
     d="m 489.84858,271.74178 c 0,0 0.25,-11.63 -5.42,-13.94 -5.67,-2.31 -45.41,-8.54 -45.41,-8.54 l -3.73,4.3 c 0,0 39.02,22.5 54.56,18.18 z"
     fill="#fdbaac"
     id="path455" />
  <path
     d="m 425.44858,302.47178 0.48,-0.5 c -1.93,2.17 -3.22,3.73 -3.62,4.21 q 1.47,-1.94 3.14,-3.71 z"
     fill="#dc9ed5"
     id="path457" />
  <path
     d="m 501.51858,304.75178 c -1.16,6.77 -5.78,12.59 -11.41,16.54 -5.63,3.95 -12.21,6.27 -18.8,8.27 -3.89,1.19 -6.31,6.18 -9.82,8.25 a 8.85,8.85 0 0 0 -3.23,2.7 c -1.28,2.07 -0.64,4.75 0,7.09 q 4.47,15.53 9,31.05 c 1.49,5.14 3,10.59 1.58,15.76 -1.42,5.17 -6.86,9.62 -11.93,7.91 q -14.87,-24 -29.74,-48 c 0,0 -4.89,-19.32 5.37,-35.75 4.43,-7.08 39.13,-36.3 39.13,-36.3 8.87,-1.29 17.89,-1.89 26.46,-2.38 1.01,8.34 4.83,16.58 3.39,24.86 z"
     fill="#68e1fd"
     id="path459"
     style="fill:#00467b;fill-opacity:1" />
  <path
     d="m 471.69858,282.24178 c 0,0 -35.41,28.82 -39.13,36.3 -10.39,20.87 -5.37,35.75 -5.37,35.75 q -13,20.91 -26,41.82 c -6,0.13 -14.09,-1.5 -14.39,-7.52 a 11.76,11.76 0 0 1 1.18,-4.89 q 9.8,-24.41 19.59,-48.8 c 3.87,-9.68 7.88,-19.56 14.08,-27.86 l 0.55,-0.72 v -0.06 l 0.08,-0.1 c 0.4,-0.48 1.69,-2 3.62,-4.21 v -0.06 c 5.63,-6.29 16.62,-17.55 26.78,-22 0,0 11.79,3.25 18.9,2.38 z"
     fill="#68e1fd"
     id="path461" />
  <path
     d="m 471.69858,282.24178 c 0,0 -35.41,28.82 -39.13,36.3 -2.8552,5.73513 -4.54669,11.01792 -5.49844,15.66387 -2.51163,12.26057 0.12844,20.08613 0.12844,20.08613 l -26,41.82 c -6,0.13 -14.09,-1.5 -14.39,-7.52 0.036,-1.69603 0.43857,-3.36419 1.18,-4.89 6.53333,-16.27333 13.06333,-32.54 19.59,-48.8 3.87,-9.68 7.88,-19.56 14.08,-27.86 l 0.55,-0.72 v -0.06 l 0.08,-0.1 c 0.4,-0.48 1.69,-2 3.62,-4.21 v -0.06 c 5.63,-6.29 16.62,-17.55 26.78,-22 0,0 11.79,3.25 18.9,2.38 z"
     fill="url(#linear-gradient-5)"
     id="path463"
     sodipodi:nodetypes="ccscccccccccccccc"
     style="opacity:1;mix-blend-mode:normal;fill:#00467b;fill-opacity:1" />
  <path
     d="m 453.51858,411.47178 c -2.32,2.14 -5.41,4.28 -5.3,7.44 a 1.49,1.49 0 0 0 0.25,0.88 1.73,1.73 0 0 0 1.21,0.5 c 7.14,0.79 13.78,-3.56 19.33,-8.13 1.4,-1.15 2.86,-2.47 3.19,-4.25 0.33,-1.78 -0.61,-3.57 -1.42,-5.21 a 50,50 0 0 1 -3.21,-8.3 c 0.25,0.85 -3.34,3.87 -3.95,4.4 -1.28,1.12 -3.17,1.93 -4.17,3.29 -1,1.36 -1.21,3 -2,4.35 a 20.55,20.55 0 0 1 -3.93,5.03 z"
     fill="#eb9d80"
     id="path465" />
  <path
     d="m 379.81858,398.09178 c -2.51,0.89 -5.42,1.37 -7,3.5 a 2.38,2.38 0 0 0 -0.53,1.33 c 0,1.32 1.53,2 2.82,2.3 5.15,1.05 10.47,0.31 15.67,-0.44 a 3.24,3.24 0 0 0 3.28,-2.93 l 2.05,-6.32 a 0.94,0.94 0 0 0 0.07,-0.59 1,1 0 0 0 -0.42,-0.46 26.92,26.92 0 0 0 -4.47,-2.53 c -2.11,-1 -2.25,-0.91 -3.66,0.76 a 18.47,18.47 0 0 1 -7.81,5.38 z"
     fill="#eb9d80"
     id="path467" />
  <path
     d="m 434.75858,248.47178 c -4.11,-0.65 -8.73,-1.18 -12.05,1.31 a 15.68,15.68 0 0 0 -3.8,4.87 c -0.65,1.11 -1.31,2.44 -0.78,3.6 0.53,1.16 1.83,1.52 3,1.81 3.79,0.92 7.87,1.78 11.5,0.36 2.68,-1 4.85,-3.27 7.66,-3.94 a 3.73,3.73 0 0 0 1.35,-0.46 2.31,2.31 0 0 0 0.77,-1.24 c 1.69,-5.64 -3.89,-5.78 -7.65,-6.31 z"
     fill="#fdbaac"
     id="path469" />
  <path
     d="m 390.72858,409.58178 a 1.79,1.79 0 0 1 -0.64,0.72 1.93,1.93 0 0 1 -1.28,0 35.2,35.2 0 0 0 -7,-0.24 95.78,95.78 0 0 1 -14.29,-1.3 c -2.06,-0.3 -4.35,-0.73 -5.54,-2.43 a 1.32,1.32 0 0 1 -0.28,-0.67 1.56,1.56 0 0 1 0.41,-1 17.43,17.43 0 0 1 7.86,-5.36 9.88,9.88 0 0 1 3.58,-0.78 4.21,4.21 0 0 1 3.26,1.45 c 0.85,1.08 1,2.63 1.93,3.6 0.93,0.97 2.53,1.09 3.93,1 a 31.6,31.6 0 0 0 4.84,-0.55 c 1.21,-0.23 3,-1.06 4.2,-0.75 2.81,0.77 -0.19,4.9 -0.98,6.31 z"
     fill="#68e1fd"
     id="path471"
     style="fill:#00467b;fill-opacity:1" />
  <path
     d="m 473.98858,411.57178 a 2,2 0 0 1 -0.14,1.09 2.23,2.23 0 0 1 -1.21,0.83 39.08,39.08 0 0 0 -6.83,4.25 108.36,108.36 0 0 1 -14.29,7.81 c -2.14,1 -4.59,2.07 -6.8,1.22 a 1.54,1.54 0 0 1 -0.69,-0.45 1.76,1.76 0 0 1 -0.24,-1.2 19.87,19.87 0 0 1 4,-10.08 11.16,11.16 0 0 1 2.91,-3 4.8,4.8 0 0 1 4,-0.7 c 1.49,0.48 2.59,1.87 4.12,2.18 1.53,0.31 3.1,-0.57 4.39,-1.51 a 36.42,36.42 0 0 0 4.24,-3.61 c 1,-1 2.15,-2.9 3.5,-3.38 3.1,-1.11 2.93,4.69 3.04,6.55 z"
     fill="#68e1fd"
     id="path473"
     style="fill:#00467b;fill-opacity:1" />
  <path
     d="m 511.70858,220.28178 a 47.29,47.29 0 0 1 2,9.39 l 0.61,4.3 a 4.71,4.71 0 0 1 -0.14,2.69 c -0.71,1.51 -3.58,0.89 -5,1.12 -2.54,0.41 -5.07,0.81 -7.61,1.2 q -7.62,1.17 -15.24,2.24 a 30.38,30.38 0 0 1 0.19,-7.75 c 0.47,-2.44 1.52,-4.73 2.12,-7.14 0.49,-2 0.67,-4 1.18,-6 a 18.58,18.58 0 0 1 6.94,-10.25 c 5.35,-3.91 13.2,5.56 14.84,9.82 z"
     fill="#ffffff"
     style="isolation:isolate"
     id="path475" />
  <path
     d="m 546.03858,296.91178 c -6.64,15.31 -21.58,25.87 -37.59,30.61 -12.48,3.69 -25.63,4.26 -38.71,3.51 0,-0.89 0.52,-1.43 1.61,-1.48 12.53,-0.63 17.72,-17.1 21.48,-25.48 3.76,-8.38 6.33,-18.91 30.8,-28.62 23.84,-9.44 20.93,-27.2 22.12,-23.62 5.63,16.84 7.35,28.79 0.29,45.08 z"
     fill="#2f3653"
     id="path477" />
  <path
     d="m 547.74858,297.61178 c -6.64,15.3 -21.58,25.86 -37.59,30.61 -12.48,3.68 -29.24,4.31 -42.32,3.55 0,-0.88 2.42,-2.17 3.51,-2.22 12.53,-0.63 18,-20.19 21.76,-28.57 3.76,-8.38 7.21,-13.3 30.52,-25.53 34.83,-18.26 9.63,-43.1 9.19,-44.69 8.35,2.69 13,19.66 14.18,23.24 5.63,16.84 7.81,27.31 0.75,43.61 z"
     fill="#ffffff"
     id="path479" />
  <path
     d="m 500.43858,325.54178 c -10.59,2.7 -21.8,2.8 -32.11,6.45 3.27,-1.16 10.12,0.64 13.76,0.53 a 100.8,100.8 0 0 0 14.91,-1.57 c 8.71,-1.58 20.25,-4 27.43,-9.37 -4.68,-3.98 -18.81,2.64 -23.99,3.96 z"
     fill="#68e1fd"
     opacity="0.23"
     id="path481"
     style="fill:#00467b;fill-opacity:1" />
  <path
     d="m 506.78858,418.95178 a 2,2 0 0 1 -0.52,0.23 2.36,2.36 0 0 1 -1,0.05 c -3.71,-0.46 -21.92,-87.17 -21.92,-87.17 l 2.49,-1.45 c 0.18,-0.1 0.39,-0.21 0.57,-0.29 a 5.11,5.11 0 0 1 6.77,2.91 v 0.1 a 4.21,4.21 0 0 1 0.23,0.81 l 14.32,79.41 c 0,0 0.85,4.18 -0.94,5.4 z"
     fill="#68e1fd"
     id="path483"
     style="fill:#00467b;fill-opacity:1" />
  <path
     d="m 507.19858,411.81178 c 0,0 -0.15,5 -0.41,7.14 -0.16,1 -0.31,1.4 -0.52,0.23 v 0 c -1.79,-10.49 -16.66,-74.88 -19.87,-88.84 a 5.11,5.11 0 0 1 6.77,2.91 v 0.1 z"
     fill="url(#linear-gradient-6)"
     id="path485"
     style="fill:#00467b;fill-opacity:1" />
  <path
     d="m 123.28858,318.38178 c 0,0 -27.769995,89.74 -24.769995,91.94 2.999995,2.2 4.919995,-3.78 4.919995,-3.78 l 28.08,-83.4 z"
     fill="#68e1fd"
     id="path487"
     style="fill:#00467b;fill-opacity:1" />
  <path
     d="m 183.08858,328.74178 0.26,0.65 31.7,81.33 a 10.17,10.17 0 0 0 2.13,3.38 2.06,2.06 0 0 0 3,0.18 c 2.9,-2.34 -26.88,-85.77 -26.88,-85.77 z"
     fill="#68e1fd"
     id="path489"
     style="fill:#00467b;fill-opacity:1" />
  <path
     d="m 159.41858,322.77178 c 0,0 1,93.94 4.52,95.11 3.52,1.17 3.58,-5.11 3.58,-5.11 l 1.2,-88 z"
     fill="#68e1fd"
     id="path491"
     style="fill:#00467b;fill-opacity:1" />
  <path
     d="m 128.25858,319.47178 c 0,0 -30.279995,87 -27.25,89.16 3.03,2.16 2.41,-2.1 2.41,-2.1 l 28.1,-83.39 z"
     fill="url(#linear-gradient-7)"
     id="path493"
     style="fill:#00467b;fill-opacity:1" />
  <path
     d="m 183.34858,329.39178 31.7,81.33 a 10.17,10.17 0 0 0 2.13,3.38 c -0.1,-9.32 -27.09,-84.86 -27.09,-84.86 z"
     fill="url(#linear-gradient-8)"
     id="path495"
     style="fill:#00467b;fill-opacity:1" />
  <path
     d="m 159.41858,322.77178 c 0,0 1,93.94 4.52,95.11 3.52,1.17 1.35,-7.08 1.35,-7.08 l -1.25,-87 z"
     fill="url(#linear-gradient-9)"
     id="path497"
     style="fill:#00467b;fill-opacity:1" />
  <path
     d="m 97.838585,296.91178 c 6.639995,15.31 21.579995,25.87 37.589995,30.61 12.48,3.69 25.63,4.26 38.71,3.51 q 5.49,-0.29 10.95,-0.84 c 6.4,-0.64 12.89,-1.47 18.88,-3.81 5.99,-2.34 11.57,-6.38 14.61,-12.09 a 29.12,29.12 0 0 0 3,-12.06 c 0.63,-10.74 -2.77,-22.16 -11,-29 -6.46,-5.4 -14.89,-7.5 -21.59,-12.51 -7.5,-5.63 -15.2,-10.66 -23.14,-15.72 -7.94,-5.06 -16,-10.17 -24.88,-13.39 -8.88,-3.22 -18.78,-4.43 -27.76,-1.58 -3.11,1 -7.9,3.41 -12.59,14.89 -6.749995,16.41 -9.839995,35.7 -2.779995,51.99 z"
     fill="#2f3653"
     id="path499" />
  <path
     d="m 121.62858,241.17178 a 41.51,41.51 0 0 1 2.78,8 c 0.6,3.36 1.63,6.66 2.22,10.05 a 113.61,113.61 0 0 1 1.69,20.59 c 0,2.73 0,5.81 1.95,7.7 1.32,1.27 3.21,1.68 5,2 3.53,0.71 6.72,2.11 10.25,2.71 a 69.49,69.49 0 0 0 11.62,0.7 c 11.46,0 32.78,-1.28 32.07,-17.26 a 539.93,539.93 0 0 0 -4.76,-53.92 c -0.86,-6.06 -1,-13.05 -2.87,-18.88 -1.54,-4.91 -7.26,-4.95 -12,-4.45 l -0.9,0.1 c -0.92,0.09 -1.84,0.21 -2.73,0.32 a 128.2,128.2 0 0 1 -19,0.56 c -7.13,-0.22 -18.55,-0.93 -25.56,5.79 a 15.89,15.89 0 0 0 -1.37,1.47 c -6.97,8.51 -3.23,22.32 1.61,34.52 z"
     fill="#ffffff"
     id="path501" />
  <path
     d="m 148.20858,239.40178 c 0.61,8 -1.66,16.53 2.54,23.22 a 2.05,2.05 0 0 0 0.87,0.88 3,3 0 0 0 1.79,-0.2 4.66,4.66 0 0 1 5.56,4.22 8.78,8.78 0 0 0 3.47,-6.35 c 0.09,-1.39 0,-3.08 1.16,-3.84 1.5,-1 3.44,0.77 3.76,2.53 0.32,1.76 -0.18,3.62 0.32,5.34 0.64,2.25 2.89,3.72 5.17,4.2 a 24,24 0 0 0 7,0 10,10 0 0 1 5,0.53 c 1.54,0.73 2.73,2.48 2.26,4.12 -0.56,1.95 -2.92,2.63 -4.92,3 l -27.46,5.12 -14.13,2.64 c -3.09,0.57 -8.55,3.3 -8.65,-1.27 a 75.76,75.76 0 0 0 -3.18,-20.17 c -0.79,-2.64 -0.88,-5.34 -1.65,-7.9 -0.94,-3.11 -2.67,-6.09 -3.73,-9.2 a 89.7,89.7 0 0 1 -4.29,-19.29 c -0.5,-4.62 -0.18,-10.19 3.78,-12.6 2.86,-1.73 6.71,-1 9.4,1 3.28,2.43 4.79,6.25 7.82,8.81 3.52,3 6.26,6.38 7.44,10.95 a 25,25 0 0 1 0.67,4.26 z"
     fill="#d9dbe2"
     opacity="0.43"
     id="path503" />
  <path
     d="m 162.20858,210.89178 a 3.26,3.26 0 0 0 -0.51,1 2.29,2.29 0 0 0 0.23,1.14 c 3.86,9.68 6.28,19.86 8.68,30 2.12,8.92 4.25,17.91 4.69,27.07 a 5.8300001,5.8300001 0 0 1 -0.15,2 c -0.7,2.26 -3.65,3 -4.94,4.95 l -4.29,-4.9 a 3.21,3.21 0 0 1 -0.66,-1 3.25,3.25 0 0 1 0,-1.58 c 1.45,-9.79 -0.16,-19.78 -2.45,-29.42 -2,-8.28 -4.47,-16.57 -4.32,-25.08 0,-1 0,-2.22 -0.77,-2.89 a 5.32,5.32 0 0 0 -1.42,-0.68 4.8,4.8000002 0 0 1 -2.16,-6.5 5.8200001,5.8200001 0 0 0 2.61,-0.67 3.92,3.92 0 0 1 2.65,-0.35 c 1.98,0.68 3.94,5.05 2.81,6.91 z"
     fill="#68e1fd"
     id="path505"
     style="fill:#00467b;fill-opacity:1;stroke-width:1" />
  <path
     d="m 121.39858,205.20178 c 7,-6.72 18.43,-6 25.56,-5.79 a 128.2,128.2 0 0 0 19,-0.56 c 0.89,-0.11 1.81,-0.23 2.73,-0.32 -3.77,-1.54 -9.12,-0.51 -13.14,-0.38 q -9.14,0.3 -18.27,1.11 c -5.76,0.53 -12.14,1.52 -15.88,5.94 z"
     fill="#ffffff"
     id="path507" />
  <path
     d="m 143.01858,180.06178 c 1.6,5 8.06,9.82 15.62,7.74 0,0 -3,9 0.75,14.49 0,0 -2.45,6.27 -19.07,-3 0,0 4.49,-0.37 3.27,-9.59 a 19.78,19.78 0 0 0 -3.27,-8.85 1.62,1.62 0 0 0 2.7,-0.79 z"
     fill="#d5846c"
     id="path509" />
  <path
     d="m 151.16858,191.69178 c 8.76,2.58 15.9,-4.64 19.15,-15.32 0.35,-1.16 0.65,-2.38 0.9,-3.62 a 46.38,46.38 0 0 0 1,-10.79 c -0.51,-17.49 -25.7,-15.71 -25.7,-15.71 -20.34,4.53 -10.6,40.96 4.65,45.44 z"
     fill="#eb9d80"
     id="path511" />
  <path
     d="m 205.64858,300.57178 -0.52,-0.54 c 2.06,2.32 3.45,4 3.87,4.5 -1.04,-1.36 -2.17,-2.69 -3.35,-3.96 z"
     fill="#dc9ed5"
     id="path513" />
  <path
     d="m 130.62858,147.47178 a 15.73,15.73 0 0 1 7.19,-7.29 c 2.88,-1.52 7.08,-1.22 9.44,-3.59 1.27,-1.27 1.52,-3.2 2.25,-4.84 a 8.54,8.54 0 0 1 3.58,-3.91 7.75,7.75 0 0 1 3.36,-1 c 3.65,-0.17 6.94,2.65 8.35,6 1,-1.65 3.07,-2.29 5,-2.25 4.44,0.09 8.51,3.23 10.34,7.28 a 10.52,10.52 0 0 1 1,5.08 7,7 0 0 1 -2.14,4.65 1.84,1.84 0 0 1 -1,0.54 0.8,0.8 0 0 1 -0.89,-0.52 37.52,37.52 0 0 1 -4.67,7.44 6.42,6.42 0 0 1 -2.39,2 5.24,5.24 0 0 1 -2.94,0.17 11,11 0 0 1 -3.78,-1.46 1,1 0 0 0 -0.73,-0.22 c -0.26,0.07 -0.4,0.33 -0.53,0.57 a 5.7,5.7 0 0 1 -3.55,2.9 11.71,11.71 0 0 1 -4,-0.15 21.93,21.93 0 0 0 -5.43,0 7.36,7.36 0 0 0 -3.12,1 4.65,4.65 0 0 0 -1.86,3.72 c 0,0.57 0.56,5.27 -0.13,5.38 -1.11,0.19 -1.33,-1.65 -2.3,-2.22 -0.97,-0.57 -1.91,0.17 -2.41,1 a 4,4 0 0 0 0.45,4.6 2.71,2.71 0 0 1 0.76,1.06 2.07,2.07 0 0 1 -0.2,1.21 l -1.71,4.3 a 103.55,103.55 0 0 0 -8.21,-15.56 c -1.35,-2 -2.92,-4.23 -2.32,-6.54 0.6,-2.31 3.1,-4 2.58,-6.25 -0.1,-0.43 -0.31,-0.83 -0.37,-1.27 a 3.39,3.39 0 0 1 0.38,-1.83 z"
     fill="#fc682d"
     id="path515"
     style="fill:#ec610c;fill-opacity:1" />
  <path
     d="m 145.06858,280.22178 c 0,0 10.67,26.63 19.23,29.42 8.56,2.79 61.7,18.83 61.7,18.83 l 22.59,76.54 5.84,-3.58 c 2.21,-1.36 7.49,-3.32 8.83,-5.53 1.78,-2.91 -0.9,-10.55 -1.41,-13.86 l -2.31,-15 q -4.66,-30.42 -9.35,-60.85 a 4.87,4.87 0 0 0 -3.22,-4.59 341.73,341.73 0 0 0 -32.17,-15.13 c -5.38,-2.2 -10.81,-4.24 -16.28,-6.18 -1.08,-0.38 -9.09,-4.76 -9.31,-4.59 -0.07,0.03 -5.75,4.3 -44.14,4.52 z"
     fill="#2f3653"
     id="path517" />
  <path
     d="m 242.24858,407.82178 c -2.46,-5.44 -2.67,-11.57 -3.39,-17.49 -0.53,-4.46 -1.38,-8.87 -2.23,-13.28 l -11.62,-60.68 a 6.22,6.22 0 0 0 -4.39,-5.72 c -18.66,-9.11 -37,-18.67 -55.5,-28.14 0,0 -20,-7.26 -34.85,2.88 0,0 -2,24.29 6.56,27.08 q 28.37,9.25 57.19,16.9 a 6.42,6.42 0 0 1 2.5,1.1 6.23,6.23 0 0 1 1.68,3.06 c 7,21.31 14,42.63 20.39,64.11 q 1.14,3.8 2.25,7.59 c 0.57,1.93 1,7 2.41,8.34 1.87,1.89 4.34,0 6.84,-1 l 13.64,-5.5 -44.12,-106.88 -6.42,-3.3"
     fill="#4c516c"
     id="path519" />
  <path
     d="m 272.97858,397.54178 a 44.87,44.87 0 0 1 6.74,0.67 11.3,11.3 0 0 1 5.71,2.32 5.41,5.41 0 0 1 1.77,3.16 4.12,4.12 0 0 1 -1.05,3.41 7.3,7.3 0 0 1 -2.77,1.49 q -3.57,1.26 -7.15,2.49 c -5.11,1.76 -10.3,3.54 -15.7,3.83 a 2,2 0 0 1 -0.95,-0.1 2.16,2.16 0 0 1 -0.62,-0.47 c -3.24,-3.17 -6.3,-6.89 -7.08,-11.36 a 0.9,0.9 0 0 1 0,-0.46 1,1 0 0 1 0.38,-0.4 38.08,38.08 0 0 1 10.62,-5 c 3.42,-0.99 6.64,0.35 10.1,0.42 z"
     fill="#2f3653"
     id="path521" />
  <path
     d="m 247.12858,407.80178 a 44.87,44.87 0 0 1 6.74,0.67 11.3,11.3 0 0 1 5.71,2.32 5.41,5.41 0 0 1 1.77,3.16 4.12,4.12 0 0 1 -1.05,3.41 7.3,7.3 0 0 1 -2.77,1.49 q -3.57,1.26 -7.15,2.49 c -5.11,1.76 -10.3,3.54 -15.7,3.83 a 2,2 0 0 1 -1,-0.1 2.16,2.16 0 0 1 -0.62,-0.47 c -3.24,-3.17 -6.3,-6.89 -7.08,-11.36 a 0.9,0.9 0 0 1 0,-0.46 1,1 0 0 1 0.38,-0.4 38.08,38.08 0 0 1 10.62,-5 c 3.47,-0.99 6.64,0.34 10.15,0.42 z"
     fill="#2f3653"
     id="path523" />
  <path
     d="m 97.838585,296.91178 c 6.639995,15.31 21.579995,25.87 37.589995,30.61 12.48,3.69 25.63,4.26 38.71,3.51 0,-0.89 -0.52,-1.43 -1.61,-1.48 -12.53,-0.63 -17.72,-17.1 -21.48,-25.48 -3.76,-8.38 -6.33,-18.91 -30.8,-28.62 -23.839995,-9.44 -20.929995,-27.2 -22.119995,-23.62 -5.61,16.84 -7.35,28.79 -0.29,45.08 z"
     fill="#2f3653"
     id="path525" />
  <path
     d="m 96.128585,297.61178 c 6.639995,15.3 21.579995,25.86 37.589995,30.61 12.48,3.68 29.24,4.31 42.32,3.55 0,-0.88 -2.42,-2.17 -3.51,-2.22 -12.53,-0.63 -18,-20.19 -21.76,-28.57 -3.76,-8.38 -7.25,-13.3 -30.52,-25.51 -34.829995,-18.26 -9.63,-43.1 -9.19,-44.69 -8.35,2.69 -12.999995,19.66 -14.179995,23.24 -5.63,16.82 -7.81,27.29 -0.75,43.59 z"
     fill="#ffffff"
     id="path527" />
  <path
     d="m 143.43858,325.54178 c 10.59,2.7 21.8,2.8 32.11,6.45 -3.27,-1.16 -10.12,0.64 -13.76,0.53 a 100.53,100.53 0 0 1 -14.9,-1.57 c -8.72,-1.58 -20.25,-4 -27.44,-9.37 4.68,-3.98 18.81,2.64 23.99,3.96 z"
     fill="#68e1fd"
     opacity="0.23"
     id="path529"
     style="fill:#00467b;fill-opacity:1" />
  <path
     d="m 137.08858,418.95178 a 2,2 0 0 0 0.52,0.23 2.37,2.37 0 0 0 1,0.05 c 3.71,-0.46 21.92,-87.17 21.92,-87.17 l -2.49,-1.45 c -0.18,-0.1 -0.39,-0.21 -0.57,-0.29 a 5.11,5.11 0 0 0 -6.77,2.91 v 0.1 a 3.61,3.61 0 0 0 -0.24,0.81 l -14.32,79.41 c 0,0 -0.84,4.18 0.95,5.4 z"
     fill="#68e1fd"
     id="path531"
     style="fill:#00467b;fill-opacity:1" />
  <path
     d="m 136.67858,411.81178 c 0,0 0.15,5 0.41,7.14 0.16,1 0.31,1.4 0.52,0.23 v 0 c 1.79,-10.49 16.66,-74.88 19.87,-88.84 a 5.11,5.11 0 0 0 -6.77,2.91 v 0.1 z"
     fill="url(#linear-gradient-10)"
     id="path533"
     style="fill:#00467b;fill-opacity:1" />
  <path
     d="m 157.05858,289.82178 a 5.46,5.46 0 0 1 -1.94,3.33 8.17,8.17 0 0 1 -3.86,1.76 c -2.71,0.43 -5.48,-0.32 -8.1,-1.14 a 157.53,157.53 0 0 1 -24.39,-9.86 c -2.58,-1.3 -5.23,-2.76 -6.78,-5.2 -1.71,-2.74 -1.73,-6.19 -1.64,-9.41 a 350.78,350.78 0 0 1 3.49,-40.29 c 0.84,-5.91 0.77,-15.06 4.31,-20.7 a 10.11,10.11 0 0 1 8.44,-5 c 5.62,-0.34 10.27,5 11.3,10.52 1.03,5.52 -0.57,11.18 -2,16.62 -2,7.84 -3.74,15.79 -5,23.79 -0.59,3.56 -1.05,7.42 0.66,10.61 a 15.88,15.88 0 0 0 3,3.7 92.56,92.56 0 0 0 15.63,12.25 c 3.41,2.15 7.47,5.05 6.88,9.02 z"
     fill="#ffffff"
     id="path535" />
  <path
     d="m 236.27858,243.09178 a 9.8,9.8 0 0 1 -4.88,6.7 29.39,29.39 0 0 1 -8,2.95 l -11.48,3 c -6,1.58 -13.23,2.83 -17.68,-1.5 a 6.47,6.47 0 0 1 -2,-5.84 4,4 0 0 1 0.69,-1.49 9.69,9.69 0 0 1 3,-2.23 28.62,28.62 0 0 0 8.47,-7.67 c -6.8,-2.54 -13.88,-5.13 -19.57,-9.54 a 28.42,28.42 0 0 1 -3,-2.6 30,30 0 0 1 -8.16,-15.4 c -0.5,-2.44 -1.35,-6.52 -0.46,-8.94 1.21,-3.31 3.49,-1.78 6.73,-0.85 12.39,3.56 23.85,9.91 34.09,17.64 a 161.1,161.1 0 0 1 16.71,14.72 c 3.01,3.01 6.13,6.8 5.54,11.05 z"
     fill="#ffffff"
     id="path537" />
  <path
     d="m 208.98858,240.80178 c -4,2.77 -8.12,5.44 -12.28,8 -1.21,0.75 -2.89,1.48 -3.92,0.48 a 1.71,1.71 0 0 1 -0.53,-1 4,4 0 0 1 0.69,-1.49 9.69,9.69 0 0 1 3,-2.23 28.62,28.62 0 0 0 8.47,-7.67 c -6.82,-2.42 -13.9,-5.01 -19.59,-9.42 0,-0.27 0,-0.54 0,-0.84 0,-1 -0.21,-8.28 -0.78,-8.63 l 25.56,15.82 a 4.72,4.72 0 0 1 2.26,2.26 c 0.65,1.85 -1.21,3.58 -2.88,4.72 z"
     fill="#d9dbe2"
     opacity="0.38"
     id="path539" />
  <path
     d="m 184.21858,255.68178 a 16.75,16.75 0 0 0 -1.15,5.87 15.55,15.55 0 0 0 1.27,8 c 1.26,2.43 3.87,4.32 6.59,4 a 6.43,6.43 0 0 0 4.54,-3 10.46,10.46 0 0 0 1.51,-5.35 c 1.25,-0.32 1.94,-1.66 2.25,-2.92 a 10.56,10.56 0 0 1 1.18,-3.66 c 0.76,-1.07 2.07,-1.67 2.71,-2.82 a 3.74,3.74 0 0 0 -0.11,-3.47 c -1.64,-3.17 -6.77,-5.91 -10.13,-4.44 -3.36,1.47 -7.1,4.22 -8.66,7.79 z"
     fill="#eb9d80"
     id="path541" />
  <path
     d="m 151.97858,292.82178 c 2.11,3.14 6.57,3.56 10.31,3 a 32.86,32.86 0 0 0 10.9,-3.6 4.09,4.09 0 0 0 2.08,-1.93 3.17,3.17 0 0 0 0,-1.88 7.81,7.81 0 0 0 -4,-4.74 23.48,23.48 0 0 0 -6.05,-2 c -3.39,-0.77 -7,-1.54 -10.27,-0.4 -3.27,1.14 -3.88,1 -4.24,4.28 -0.19,2.38 -0.1,5.26 1.27,7.27 z"
     fill="#eb9d80"
     id="path543" />
  <path
     d="m 141.72858,195.11178 6.79,3.52 a 31.45,31.45 0 0 1 6.68,4.2 29.34,29.34 0 0 0 -2.39,8.67 32.1,32.1 0 0 0 -6.17,-5.88 c -2.15,-1.42 -4.65,-2.3 -6.66,-3.93 -2.37,-1.92 0.54,-4.62 1.75,-6.58 z"
     fill="#ffffff"
     id="path545" />
  <path
     d="m 163.02858,201.79178 3.17,4.22 a 1.93,1.93 0 0 1 0.44,0.85 32.87,32.87 0 0 0 -7.66,-2.5 1,1 0 0 1 -0.75,-0.38 1,1 0 0 1 -0.05,-0.67 8.23,8.23 0 0 0 -0.77,-4.63 3.7,3.7 0 0 1 -0.55,-1.48 c -0.13,-2.34 2.36,0.12 2.94,0.69 a 34.46,34.46 0 0 1 3.23,3.9 z"
     fill="#ffffff"
     id="path547" />
  <path
     d="m 365.99858,204.36178 v 9 a 14.37,14.37 0 0 1 -14.37,14.38 h -121.78 a 14.38,14.38 0 0 1 -14.33,-14.41 v -9 z"
     fill="#68e1fd"
     opacity="0.41"
     style="isolation:isolate;fill:#00467b;fill-opacity:1"
     id="path549" />
  <path
     d="m 155.11858,293.15178 a 8.17,8.17 0 0 1 -3.86,1.76 c -2.71,0.43 -5.48,-0.32 -8.1,-1.14 a 157.53,157.53 0 0 1 -24.39,-9.86 c -2.58,-1.3 -5.23,-2.76 -6.78,-5.2 -1.71,-2.74 -1.73,-6.19 -1.64,-9.41 a 350.78,350.78 0 0 1 3.49,-40.29 c 0.84,-5.91 0.77,-15.06 4.31,-20.7 a 25.47,25.47 0 0 1 3.06,1.1 6.4,6.4 0 0 1 3.31,2.55 c 0.86,1.58 0.5,3.54 0.09,5.32 a 384.28,384.28 0 0 0 -7.69,51.55 4.07,4.07 0 0 0 1.73,4.31 90.9,90.9 0 0 0 10.87,8.42 c 6,4 13.28,8.58 20.42,9.9 2.03,0.39 3.69,0.41 5.18,1.69 z"
     fill="#d9dbe2"
     opacity="0.43"
     id="path551" />
  <rect
     x="334.66861"
     y="60.17178"
     width="160.39"
     height="55.779999"
     rx="23.07"
     fill="#ffffff"
     id="rect553" />
  <polygon
     points="441.37,113.84 441.37,134.37 426.91,113.84 "
     fill="#ffffff"
     id="polygon555"
     transform="translate(-8.9714153,0.00177979)" />
  <path
     d="m 273.09174,148.37551 c -0.71073,2.92873 -0.49835,6.3471 0.66509,9.27569 l -2.96218,9.58933"
     style="fill:#ec610c;fill-rule:evenodd;stroke:#ec610c;stroke-width:0.202045;stroke-linecap:butt;stroke-linejoin:miter;stroke-dasharray:none"
     id="path1040" />
  <path
     d="m 280.07189,165.51315 -6.31506,-7.86195 -7.43053,-3.7655"
     style="fill:#ec610c;fill-rule:evenodd;stroke:#ec610c;stroke-width:0.202045;stroke-linecap:butt;stroke-linejoin:miter;stroke-dasharray:none"
     id="path1042" />
  <path
     d="m 267.38635,167.81465 1.29958,-3.23463 5.0709,-6.92882 10.84536,-14.37724"
     style="fill:#ec610c;fill-rule:evenodd;stroke:#ec610c;stroke-width:0.202045;stroke-linecap:butt;stroke-linejoin:miter;stroke-dasharray:none"
     id="path1044" />
  <path
     d="m 287.59758,152.84903 -13.84075,4.80217"
     style="fill:#ec610c;fill-rule:evenodd;stroke:#ec610c;stroke-width:0.202045;stroke-linecap:butt;stroke-linejoin:miter;stroke-dasharray:none"
     id="path1046" />
  <path
     d="m 266.3263,153.8857 -1.15496,8.08449 c 0.24018,2.08823 0.48047,4.17661 0.72065,6.2648"
     style="fill:#ec610c;fill-rule:evenodd;stroke:#ec610c;stroke-width:0.202045;stroke-linecap:butt;stroke-linejoin:miter;stroke-dasharray:none"
     id="path1048" />
  <path
     d="m 261.50331,162.27046 3.66803,-0.30027 3.51459,2.60983 2.35572,1.86113"
     style="fill:#ec610c;fill-rule:evenodd;stroke:#ec610c;stroke-width:0.202045;stroke-linecap:butt;stroke-linejoin:miter;stroke-dasharray:none"
     id="path1050" />
  <path
     d="m 273.75683,156.98523 a 0.6659738,0.66597342 0 0 1 0.66594,0.66597 0.6659738,0.66597342 0 1 1 -0.66594,-0.66597 z"
     style="fill:#ec610c;fill-rule:evenodd;stroke:#ec610c;stroke-width:0.202045;stroke-linecap:butt;stroke-linejoin:miter;stroke-dasharray:none"
     id="path1052" />
  <path
     d="m 268.68593,164.18655 a 0.39346841,0.39346818 0 0 1 0.39347,0.39347 0.39346841,0.39346818 0 1 1 -0.39347,-0.39347 z"
     style="fill:#ec610c;fill-rule:evenodd;stroke:#ec610c;stroke-width:0.202045;stroke-linecap:butt;stroke-linejoin:miter;stroke-dasharray:none"
     id="path1054" />
  <path
     d="m 265.17134,161.30422 a 0.6659738,0.66597342 0 0 1 0.66597,0.66597 0.6659738,0.66597342 0 1 1 -0.66597,-0.66597 z"
     style="fill:#ec610c;fill-rule:evenodd;stroke:#ec610c;stroke-width:0.202045;stroke-linecap:butt;stroke-linejoin:miter;stroke-dasharray:none"
     id="path1056" />
  <path
     d="m 262.49854,176.39828 -0.0499,-7.078"
     style="fill:#ec610c;fill-rule:evenodd;stroke:#ec610c;stroke-width:0.202045;stroke-linecap:butt;stroke-linejoin:miter;stroke-dasharray:none"
     id="path1058" />
  <path
     d="m 261.10725,169.78677 c 1.17452,12.75536 9.50875,21.20615 23.2006,26.3974"
     style="fill:#ec610c;fill-rule:evenodd;stroke:#ec610c;stroke-width:0.202045;stroke-linecap:butt;stroke-linejoin:miter;stroke-dasharray:none"
     id="path1060" />
  <path
     d="m 265.89199,168.23499 2.17929,7.31046 3.01242,5.67339 3.43883,7.00413 6.82178,6.74922"
     style="fill:#ec610c;fill-rule:evenodd;stroke:#ec610c;stroke-width:0.202045;stroke-linecap:butt;stroke-linejoin:miter;stroke-dasharray:none"
     id="path1062" />
  <path
     d="m 263.59729,179.21564 17.17639,3.68581 7.39514,1.21398"
     style="fill:#ec610c;fill-rule:evenodd;stroke:#ec610c;stroke-width:0.202045;stroke-linecap:butt;stroke-linejoin:miter;stroke-dasharray:none"
     id="path1064" />
  <path
     d="m 269.5227,167.26757 0.70753,2.52996 0.85347,11.42131"
     style="fill:#ec610c;fill-rule:evenodd;stroke:#ec610c;stroke-width:0.202045;stroke-linecap:butt;stroke-linejoin:miter;stroke-dasharray:none"
     id="path1066" />
  <path
     d="m 270.23023,169.79753 8.38447,5.17137 -7.76875,5.80226"
     style="fill:#ec610c;fill-rule:evenodd;stroke:#ec610c;stroke-width:0.202045;stroke-linecap:butt;stroke-linejoin:miter;stroke-dasharray:none"
     id="path1068" />
  <path
     d="M 280.77368,182.90145 278.6147,174.9689"
     style="fill:#ec610c;fill-rule:evenodd;stroke:#ec610c;stroke-width:0.202045;stroke-linecap:butt;stroke-linejoin:miter;stroke-dasharray:none"
     id="path1070" />
  <path
     d="m 289.6105,165.94048 -10.9958,9.02842"
     style="fill:#ec610c;fill-rule:evenodd;stroke:#ec610c;stroke-width:0.202045;stroke-linecap:butt;stroke-linejoin:miter;stroke-dasharray:none"
     id="path1072" />
  <path
     d="m 279.88788,165.28409 9.82238,12.1448"
     style="fill:#ec610c;fill-rule:evenodd;stroke:#ec610c;stroke-width:0.202045;stroke-linecap:butt;stroke-linejoin:miter;stroke-dasharray:none"
     id="path1074" />
  <path
     d="m 272.3438,189.77317 2.17873,-1.5502 6.25115,-5.32152 6.97466,-7.89837"
     style="fill:#ec610c;fill-rule:evenodd;stroke:#ec610c;stroke-width:0.202045;stroke-linecap:butt;stroke-linejoin:miter;stroke-dasharray:none"
     id="path1076" />
  <path
     d="m 281.05574,194.84389 1.27453,-5.51579 -1.55659,-6.42665"
     style="fill:#ec610c;fill-rule:evenodd;stroke:#ec610c;stroke-width:0.202045;stroke-linecap:butt;stroke-linejoin:miter;stroke-dasharray:none"
     id="path1078" />
  <path
     d="m 287.17496,188.04412 -4.84469,1.28398 3.64818,2.50248"
     style="fill:#ec610c;fill-rule:evenodd;stroke:#ec610c;stroke-width:0.202045;stroke-linecap:butt;stroke-linejoin:miter;stroke-dasharray:none"
     id="path1080" />
  <path
     d="m 278.6147,174.57543 a 0.39346841,0.39346818 0 0 1 0.3935,0.39347 0.39346841,0.39346818 0 1 1 -0.3935,-0.39347 z"
     style="fill:#ec610c;fill-rule:evenodd;stroke:#ec610c;stroke-width:0.202045;stroke-linecap:butt;stroke-linejoin:miter;stroke-dasharray:none"
     id="path1082" />
  <path
     d="m 263.64619,178.926 a 0.39346841,0.39346818 0 0 1 0.39347,0.39346 0.39346841,0.39346818 0 1 1 -0.39347,-0.39346 z"
     style="fill:#ec610c;fill-rule:evenodd;stroke:#ec610c;stroke-width:0.202045;stroke-linecap:butt;stroke-linejoin:miter;stroke-dasharray:none"
     id="path1084" />
  <path
     d="m 262.49626,175.6807 a 0.39346841,0.39346818 0 0 1 0.39346,0.39351 0.39346841,0.39346818 0 1 1 -0.39346,-0.39351 z"
     style="fill:#ec610c;fill-rule:evenodd;stroke:#ec610c;stroke-width:0.202045;stroke-linecap:butt;stroke-linejoin:miter;stroke-dasharray:none"
     id="path1086" />
  <path
     d="m 287.72542,174.63584 a 0.39346841,0.39346818 0 0 1 0.39347,0.39347 0.39346841,0.39346818 0 1 1 -0.39347,-0.39347 z"
     style="fill:#ec610c;fill-rule:evenodd;stroke:#ec610c;stroke-width:0.202045;stroke-linecap:butt;stroke-linejoin:miter;stroke-dasharray:none"
     id="path1088" />
  <path
     d="m 270.23023,169.40407 a 0.39346841,0.39346818 0 0 1 0.3935,0.39346 0.39346841,0.39346818 0 1 1 -0.3935,-0.39346 z"
     style="fill:#ec610c;fill-rule:evenodd;stroke:#ec610c;stroke-width:0.202045;stroke-linecap:butt;stroke-linejoin:miter;stroke-dasharray:none"
     id="path1090" />
  <path
     d="m 268.02755,175.00532 a 0.39346841,0.39346818 0 0 1 0.39347,0.39351 0.39346841,0.39346818 0 1 1 -0.39347,-0.39351 z"
     style="fill:#ec610c;fill-rule:evenodd;stroke:#ec610c;stroke-width:0.202045;stroke-linecap:butt;stroke-linejoin:miter;stroke-dasharray:none"
     id="path1092" />
  <path
     d="m 282.33027,188.93459 a 0.39346841,0.39346818 0 0 1 0.3935,0.39351 0.39346841,0.39346818 0 1 1 -0.3935,-0.39351 z"
     style="fill:#ec610c;fill-rule:evenodd;stroke:#ec610c;stroke-width:0.202045;stroke-linecap:butt;stroke-linejoin:miter;stroke-dasharray:none"
     id="path1094" />
  <path
     d="m 271.03951,179.96085 a 0.6659738,0.66597342 0 0 1 0.66598,0.66597 0.6659738,0.66597342 0 1 1 -0.66598,-0.66597 z"
     style="fill:#ec610c;fill-rule:evenodd;stroke:#ec610c;stroke-width:0.202045;stroke-linecap:butt;stroke-linejoin:miter;stroke-dasharray:none"
     id="path1096" />
  <path
     d="m 284.08698,169.80997 a 0.6659738,0.66597342 0 0 1 0.66594,0.66597 0.6659738,0.66597342 0 1 1 -0.66594,-0.66597 z"
     style="fill:#ec610c;fill-rule:evenodd;stroke:#ec610c;stroke-width:0.202045;stroke-linecap:butt;stroke-linejoin:miter;stroke-dasharray:none"
     id="path1098" />
  <path
     d="m 272.3438,189.1072 a 0.6659738,0.66597342 0 0 1 0.66598,0.66597 0.6659738,0.66597342 0 1 1 -0.66598,-0.66597 z"
     style="fill:#ec610c;fill-rule:evenodd;stroke:#ec610c;stroke-width:0.202045;stroke-linecap:butt;stroke-linejoin:miter;stroke-dasharray:none"
     id="path1100" />
  <path
     d="m 280.77368,182.23548 a 0.6659738,0.66597342 0 0 1 0.66598,0.66597 0.6659738,0.66597342 0 1 1 -0.66598,-0.66597 z"
     style="fill:#ec610c;fill-rule:evenodd;stroke:#ec610c;stroke-width:0.202045;stroke-linecap:butt;stroke-linejoin:miter;stroke-dasharray:none"
     id="path1102" />
  <path
     d="m 281.05574,194.17795 a 0.6659738,0.66597342 0 0 1 0.66593,0.66594 0.6659738,0.66597342 0 1 1 -0.66593,-0.66594 z"
     style="fill:#ec610c;fill-rule:evenodd;stroke:#ec610c;stroke-width:0.202045;stroke-linecap:butt;stroke-linejoin:miter;stroke-dasharray:none"
     id="path1104" />
  <path
     d="m 291.86518,194.20364 1.64593,4.82994"
     style="fill:none;stroke:#ec610c;stroke-width:1.06917;stroke-linecap:round;stroke-linejoin:round;stroke-dasharray:none"
     id="path1114" />
  <path
     d="m 293.87084,193.54206 1.63053,4.83509"
     style="fill:none;stroke:#ec610c;stroke-width:1.06917;stroke-linecap:round;stroke-linejoin:round;stroke-dasharray:none"
     id="path1116" />
  <path
     d="m 295.77032,192.75348 1.67859,4.81863"
     style="fill:none;stroke:#ec610c;stroke-width:1.06917;stroke-linecap:round;stroke-linejoin:round;stroke-dasharray:none"
     id="path1118" />
  <path
     d="m 297.66827,191.84081 1.70791,4.80833"
     style="fill:none;stroke:#ec610c;stroke-width:1.06917;stroke-linecap:round;stroke-linejoin:round;stroke-dasharray:none"
     id="path1120" />
  <path
     d="m 299.5557,190.85803 1.80141,4.77411"
     style="fill:none;stroke:#ec610c;stroke-width:1.06917;stroke-linecap:round;stroke-linejoin:round;stroke-dasharray:none"
     id="path1122" />
  <path
     d="m 301.45073,189.76651 1.87778,4.74457"
     style="fill:none;stroke:#ec610c;stroke-width:1.06917;stroke-linecap:round;stroke-linejoin:round;stroke-dasharray:none"
     id="path1124" />
  <path
     d="m 303.33222,188.599 1.87781,4.74458"
     style="fill:none;stroke:#ec610c;stroke-width:1.06917;stroke-linecap:round;stroke-linejoin:round;stroke-dasharray:none"
     id="path1126" />
  <path
     d="m 305.138,187.39333 1.87781,4.74457"
     style="fill:none;stroke:#ec610c;stroke-width:1.06917;stroke-linecap:round;stroke-linejoin:round;stroke-dasharray:none"
     id="path1128" />
  <path
     d="m 306.94378,186.14211 1.87782,4.74457"
     style="fill:none;stroke:#ec610c;stroke-width:1.06917;stroke-linecap:round;stroke-linejoin:round;stroke-dasharray:none"
     id="path1130" />
  <path
     d="m 296.09036,148.37968 8.33609,3.57596 c 0.35023,0.15022 0.47076,0.54113 0.26801,0.86884 l -2.68621,4.33984 c -0.20287,0.32775 -0.65517,0.4728 -1.00534,0.32258 l -8.33607,-3.57597 c -0.35028,-0.15022 -0.47081,-0.54109 -0.26802,-0.86873 l 2.68621,-4.33994 c 0.20275,-0.32771 0.65507,-0.47281 1.00533,-0.32258 z"
     style="fill:#ec610c;fill-rule:evenodd;stroke-width:0.356402"
     id="path1132" />
  <path
     d="m 304.81759,153.32305 c 0.45434,0.41261 0.71338,0.99775 0.71338,1.61151 0,1.20221 -0.97462,2.17683 -2.17683,2.17683 -0.28299,0 -0.56322,-0.0552 -0.82521,-0.16245 z m 0.13497,0.69669 c 0.14994,-0.02 0.30402,0.20679 0.34411,0.50667 0.0401,0.29994 -0.0489,0.55926 -0.19891,0.57929 -0.14993,0.0201 -0.30401,-0.20682 -0.3441,-0.50666 -0.0401,-0.29984 0.0489,-0.55919 0.1989,-0.5793 z"
     style="fill:#ec610c;fill-rule:evenodd;stroke-width:0.356402"
     id="path1134" />
  <path
     d="m 294.77648,155.05089 1.30851,0.5573 -0.92081,1.82952 c -0.35294,-0.40394 -0.77381,-0.64206 -1.27217,-0.6906 z"
     style="fill:#ec610c;fill-rule:evenodd;stroke-width:0.356402"
     id="path1136" />
  <path
     d="m 290.3143,158.92648 0.35059,1.37838 1.94884,-0.63011 c -0.34521,-0.41062 -0.5161,-0.86293 -0.48788,-1.36285 z"
     style="fill:#ec610c;fill-rule:evenodd;stroke-width:0.356402"
     id="path1138" />
  <path
     d="m 293.78897,157.05604 a 1.3569671,1.3569663 0 0 1 1.35696,1.35697 1.3569671,1.3569663 0 1 1 -1.35696,-1.35697 z"
     style="fill:#ec610c;fill-rule:evenodd;stroke-width:0.356402"
     id="path1140" />
  <path
     d="m 282.29612,137.71441 c 9.81583,21.74446 10.13296,42.98861 -0.40166,63.66165"
     style="fill:none;stroke:#00467b;stroke-width:3.20763;stroke-linecap:round;stroke-linejoin:round;stroke-dasharray:none"
     id="path1142" />
  <path
     d="m 253.97987,172.6686 c 2.83144,-1.2782 5.65458,-2.3953 8.46873,-3.34832 9.1321,-3.09244 18.17312,-4.4576 27.11789,-3.99371 9.46823,0.49109 18.82878,3.03202 28.07504,7.7437"
     style="fill:none;stroke:#00467b;stroke-width:3.20763;stroke-linecap:round;stroke-linejoin:round;stroke-dasharray:none"
     id="path1144" />
  <path
     d="m 290.27976,197.60401 a 27.312233,27.312217 0 1 1 23.89422,-20.96829"
     style="fill:url(#linearGradient3110);fill-opacity:1;fill-rule:evenodd;stroke:#ec610c;stroke-width:1.42561;stroke-linecap:round;stroke-linejoin:round;stroke-dasharray:none"
     id="path1146" />
</svg>
