<?xml version="1.0" standalone="no"?>
<!DOCTYPE svg PUBLIC "-//W3C//DTD SVG 20010904//EN"
 "http://www.w3.org/TR/2001/REC-SVG-20010904/DTD/svg10.dtd">
<svg version="1.0" xmlns="http://www.w3.org/2000/svg"
 width="200.000000pt" height="200.000000pt" viewBox="0 0 200.000000 200.000000"
 preserveAspectRatio="xMidYMid meet">

<g transform="translate(0.000000,200.000000) scale(0.100000,-0.100000)"
fill="#000000" stroke="none">
<path d="M980 1785 c0 -18 -5 -25 -20 -25 -11 0 -20 -7 -20 -15 0 -8 9 -15 20
-15 16 0 20 -7 20 -35 0 -28 -4 -35 -20 -35 -40 0 -135 -44 -176 -82 -23 -21
-52 -62 -65 -91 -23 -50 -24 -61 -27 -374 -4 -355 -5 -350 55 -299 l28 24 1
214 1 213 223 0 223 0 1 -213 1 -214 28 -24 c60 -51 59 -56 55 299 -3 311 -4
324 -26 372 -41 90 -127 156 -221 171 -39 6 -41 9 -41 40 0 27 4 34 20 34 11
0 20 7 20 15 0 8 -9 15 -20 15 -15 0 -20 7 -20 25 0 18 -5 25 -20 25 -15 0
-20 -7 -20 -25z m77 -167 c32 -8 61 -25 94 -57 51 -50 69 -103 69 -199 l0 -47
-220 0 -220 0 0 47 c0 97 18 149 70 199 64 63 122 79 207 57z"/>
<path d="M1670 390 c-16 -16 -20 -33 -20 -88 0 -76 17 -112 53 -112 45 0 67
39 67 119 0 83 -54 127 -100 81z m63 -2 c44 -32 25 -188 -22 -188 -32 0 -51
38 -51 102 0 45 5 63 20 78 23 23 30 24 53 8z"/>
<path d="M240 300 c0 -60 4 -100 10 -100 6 0 10 20 10 45 0 40 2 45 23 45 35
0 67 27 67 59 0 38 -17 51 -67 51 l-43 0 0 -100z m88 78 c28 -28 1 -78 -44
-78 -22 0 -24 4 -24 45 0 43 1 45 28 45 15 0 33 -5 40 -12z"/>
<path d="M387 299 c-15 -56 -25 -104 -23 -107 3 -2 9 11 14 29 7 30 13 34 45
37 35 3 38 1 43 -28 4 -17 11 -33 16 -36 10 -6 8 1 -25 120 -12 44 -27 81 -32
83 -6 2 -23 -43 -38 -98z m62 -11 c1 -14 -7 -18 -30 -18 -23 0 -30 4 -26 14 3
8 11 34 18 58 l12 43 13 -40 c7 -22 13 -48 13 -57z"/>
<path d="M510 300 l0 -100 44 0 c58 0 76 24 76 100 0 76 -18 100 -76 100 l-44
0 0 -100z m94 68 c19 -26 21 -96 4 -133 -9 -19 -19 -25 -45 -25 l-33 0 0 90 0
90 29 0 c20 0 35 -8 45 -22z"/>
<path d="M672 298 c1 -57 3 -81 5 -55 l4 48 37 -3 c36 -3 37 -4 40 -45 2 -24
6 -43 11 -43 10 0 1 72 -12 88 -7 9 -7 16 1 24 16 16 15 61 0 76 -7 7 -29 12
-50 12 l-38 0 2 -102z m86 54 c3 -27 -1 -34 -22 -42 -40 -15 -56 -3 -56 42 l0
39 38 -3 c34 -3 37 -6 40 -36z"/>
<path d="M820 301 l0 -99 45 -4 c25 -2 45 0 45 4 0 5 -18 8 -40 8 l-40 0 0 44
0 45 43 4 42 4 -42 1 -43 2 0 39 c0 40 0 40 43 44 l42 4 -47 1 -48 2 0 -99z"/>
<path d="M1061 332 c-12 -38 -23 -84 -26 -103 l-5 -34 12 33 c10 30 14 33 47
30 30 -3 36 -7 43 -37 5 -18 11 -31 14 -28 8 7 -47 207 -57 207 -4 0 -17 -31
-28 -68z m43 2 c4 -19 10 -42 13 -50 4 -10 -3 -14 -26 -14 -35 0 -36 3 -20 65
13 51 24 51 33 -1z"/>
<path d="M1182 303 c-1 -57 1 -103 6 -104 44 -4 82 -3 82 4 0 4 -18 7 -40 7
l-39 0 -4 98 -3 97 -2 -102z"/>
<path d="M1300 300 l0 -100 38 0 c21 0 43 5 50 12 17 17 15 63 -3 78 -12 10
-12 15 1 35 11 17 12 29 5 49 -9 22 -16 26 -51 26 l-40 0 0 -100z m75 50 c0
-32 -3 -35 -32 -38 -32 -3 -33 -3 -33 38 0 41 1 41 33 38 29 -3 32 -6 32 -38z
m3 -62 c7 -7 12 -21 12 -33 0 -29 -19 -45 -52 -45 -27 0 -28 2 -28 45 0 43 1
45 28 45 15 0 33 -5 40 -12z"/>
<path d="M1440 300 c0 -60 4 -100 10 -100 6 0 10 40 10 100 0 60 -4 100 -10
100 -6 0 -10 -40 -10 -100z"/>
<path d="M1492 298 l2 -103 3 88 c2 48 7 87 11 87 4 0 23 -37 42 -82 50 -115
60 -113 58 14 l-2 103 -3 -87 c-2 -49 -7 -88 -11 -88 -4 0 -23 37 -42 82 -50
115 -60 113 -58 -14z"/>
</g>
</svg>
