<?xml version="1.0" encoding="UTF-8" standalone="no"?>
<svg
   xmlns:dc="http://purl.org/dc/elements/1.1/"
   xmlns:cc="http://creativecommons.org/ns#"
   xmlns:rdf="http://www.w3.org/1999/02/22-rdf-syntax-ns#"
   xmlns:svg="http://www.w3.org/2000/svg"
   xmlns="http://www.w3.org/2000/svg"
   xmlns:sodipodi="http://sodipodi.sourceforge.net/DTD/sodipodi-0.dtd"
   xmlns:inkscape="http://www.inkscape.org/namespaces/inkscape"
   width="199.99969mm"
   height="200.00369mm"
   version="1.1"
   viewBox="0 0 199.99969 200.00369"
   id="svg421"
   sodipodi:docname="logo-alt.svg"
   inkscape:version="1.0.2 (1.0.2+r75+1)">
  <defs
     id="defs425" />
  <sodipodi:namedview
     pagecolor="#ffffff"
     bordercolor="#666666"
     borderopacity="1"
     objecttolerance="10"
     gridtolerance="10"
     guidetolerance="10"
     inkscape:pageopacity="0"
     inkscape:pageshadow="2"
     inkscape:window-width="1920"
     inkscape:window-height="1043"
     id="namedview423"
     showgrid="false"
     inkscape:pagecheckerboard="true"
     inkscape:zoom="0.79699773"
     inkscape:cx="168.39326"
     inkscape:cy="510.30101"
     inkscape:window-x="2560"
     inkscape:window-y="0"
     inkscape:window-maximized="1"
     inkscape:current-layer="g419" />
  <metadata
     id="metadata313">
    <rdf:RDF>
      <cc:Work
         rdf:about="">
        <dc:format>image/svg+xml</dc:format>
        <dc:type
           rdf:resource="http://purl.org/dc/dcmitype/StillImage" />
        <dc:title></dc:title>
      </cc:Work>
    </rdf:RDF>
  </metadata>
  <g
     transform="translate(-4.5564498,-42.92515)"
     id="g419">
    <g
       fill="#ec610c"
       fill-rule="evenodd"
       stroke="#ec610c"
       stroke-width="0.6043"
       id="g381">
      <path
         d="m 66.515,79.608 c -2.1257,8.7596 -1.4905,18.984 1.9892,27.743 l -8.8595,28.681"
         id="path315" />
      <path
         d="M 87.392,130.87 68.504,107.356 46.28,96.094"
         id="path317" />
      <path
         d="m 49.451,137.75 3.887,-9.6745 15.167,-20.724 32.438,-43.001"
         id="path319" />
      <path
         d="M 109.9,92.988 68.504,107.351"
         id="path321" />
      <path
         d="m 46.28,96.089 -3.4544,24.18 c 0.71836,6.2457 1.4371,12.492 2.1554,18.737"
         id="path323" />
      <path
         d="m 31.855,121.17 10.971,-0.89805 10.512,7.8058 7.0457,5.5664"
         id="path325" />
      <path
         d="m 68.504,105.36 a 1.9919,1.9919 0 0 1 1.9918,1.9919 1.9919,1.9919 0 1 1 -1.9918,-1.9919 z"
         id="path327" />
      <path
         d="m 53.338,126.9 a 1.1768,1.1768 0 0 1 1.1768,1.1768 A 1.1768,1.1768 0 1 1 53.338,126.9 Z"
         id="path329" />
      <path
         d="m 42.826,118.28 a 1.9919,1.9919 0 0 1 1.9919,1.9919 1.9919,1.9919 0 1 1 -1.9919,-1.9919 z"
         id="path331" />
      <path
         d="M 34.832,163.42 34.6824,142.25"
         id="path333" />
      <path
         d="m 30.671,143.65 c 3.5129,38.15 28.44,63.426 69.391,78.952"
         id="path335" />
      <path
         d="m 44.981,139.01 6.5181,21.865 9.0098,16.969 10.285,20.949 20.403,20.186"
         id="path337" />
      <path
         d="m 38.118,171.85 51.373,11.024 22.118,3.6309"
         id="path339" />
      <path
         d="m 55.84,136.11 2.1161,7.5668 2.5526,34.16"
         id="path341" />
      <path
         d="m 57.957,143.68 25.077,15.467 -23.236,17.354"
         id="path343" />
      <path
         d="M 89.491,182.87 83.0337,159.144"
         id="path345" />
      <path
         d="M 115.92,132.14 83.033,159.143"
         id="path347" />
      <path
         d="m 86.842,130.18 29.378,36.324"
         id="path349" />
      <path
         d="m 64.278,203.42 6.5164,-4.6366 18.697,-15.916 20.861,-23.623"
         id="path351" />
      <path
         d="m 90.335,218.59 3.812,-16.497 -4.6556,-19.221"
         id="path353" />
      <path
         d="m 108.64,198.25 -14.49,3.8402 10.911,7.4848"
         id="path355" />
      <path
         d="m 83.034,157.97 a 1.1768,1.1768 0 0 1 1.1769,1.1769 1.1768,1.1768 0 1 1 -1.1769,-1.1769 z"
         id="path357" />
      <path
         d="m 38.264,170.98 a 1.1768,1.1768 0 0 1 1.1768,1.1768 1.1768,1.1768 0 1 1 -1.1768,-1.1768 z"
         id="path359" />
      <path
         d="m 34.825,161.28 a 1.1768,1.1768 0 0 1 1.1768,1.1769 1.1768,1.1768 0 1 1 -1.1768,-1.1769 z"
         id="path361" />
      <path
         d="m 110.28,158.15 a 1.1768,1.1768 0 0 1 1.1769,1.1768 1.1768,1.1768 0 1 1 -1.1769,-1.1768 z"
         id="path363" />
      <path
         d="m 57.957,142.5 a 1.1768,1.1768 0 0 1 1.1769,1.1768 A 1.1768,1.1768 0 1 1 57.957,142.5 Z"
         id="path365" />
      <path
         d="m 51.369,159.26 a 1.1768,1.1768 0 0 1 1.1768,1.1769 1.1768,1.1768 0 1 1 -1.1768,-1.1769 z"
         id="path367" />
      <path
         d="m 94.147,200.92 a 1.1768,1.1768 0 0 1 1.177,1.1769 1.1768,1.1768 0 1 1 -1.177,-1.1769 z"
         id="path369" />
      <path
         d="m 60.377,174.08 a 1.9919,1.9919 0 0 1 1.9919,1.9918 1.9919,1.9919 0 1 1 -1.9919,-1.9918 z"
         id="path371" />
      <path
         d="m 99.401,143.72 a 1.9919,1.9919 0 0 1 1.9918,1.9918 1.9919,1.9919 0 1 1 -1.9918,-1.9918 z"
         id="path373" />
      <path
         d="m 64.278,201.43 a 1.9919,1.9919 0 0 1 1.9918,1.9919 1.9919,1.9919 0 1 1 -1.9918,-1.9919 z"
         id="path375" />
      <path
         d="m 89.491,180.88 a 1.9919,1.9919 0 0 1 1.9919,1.9919 1.9919,1.9919 0 1 1 -1.9919,-1.9919 z"
         id="path377" />
      <path
         d="m 90.335,216.6 a 1.9919,1.9919 0 0 1 1.9917,1.9918 A 1.9919,1.9919 0 1 1 90.335,216.6 Z"
         id="path379" />
    </g>
    <g
       fill="none"
       stroke="#ec610c"
       stroke-linecap="round"
       stroke-linejoin="round"
       stroke-width="3.1978"
       id="g401">
      <path
         d="m 122.66,216.68 4.9228,14.446"
         id="path383" />
      <path
         d="m 128.66,214.7 4.8768,14.461"
         id="path385" />
      <path
         d="m 134.34,212.34 5.0205,14.412"
         id="path387" />
      <path
         d="m 140.02,209.61 5.1082,14.381"
         id="path389" />
      <path
         d="m 145.67,206.67 5.3878,14.279"
         id="path391" />
      <path
         d="m 151.33,203.4 5.6162,14.191"
         id="path393" />
      <path
         d="m 156.96,199.91 5.6164,14.191"
         id="path395" />
      <path
         d="m 162.36,196.31 5.6164,14.191"
         id="path397" />
      <path
         d="m 167.76,192.56 5.6164,14.191"
         id="path399" />
    </g>
    <g
       fill="#ec610c"
       fill-rule="evenodd"
       stroke-width="1.066"
       id="g413">
      <path
         d="m 135.3,79.621 24.933,10.695 c 1.0475,0.44935 1.408,1.6185 0.8016,2.5986 l -8.0342,12.98 c -0.60675,0.98022 -1.9596,1.4141 -3.0069,0.96474 l -24.932,-10.695 c -1.0476,-0.44927 -1.4081,-1.6183 -0.80163,-2.5983 l 8.0342,-12.98 c 0.6064,-0.98017 1.9592,-1.4141 3.0068,-0.96479 z"
         id="path403" />
      <path
         d="m 161.4,94.406 c 1.3589,1.2341 2.1336,2.9842 2.1336,4.8199 0,3.5958 -2.915,6.5108 -6.5108,6.5108 -0.84633,0 -1.6845,-0.16539 -2.4681,-0.48593 z m 0.40367,2.0838 c 0.44845,-0.05953 0.90923,0.61845 1.0292,1.5154 0.12019,0.89708 -0.14641,1.6727 -0.59488,1.7326 -0.44847,0.06 -0.90929,-0.6186 -1.0292,-1.5154 -0.1202,-0.89683 0.14641,-1.6725 0.59493,-1.7326 z"
         id="path405" />
      <path
         d="m 131.37,99.574 3.9136,1.6668 -2.7541,5.472 c -1.0556,-1.2082 -2.3144,-1.9204 -3.805,-2.0656 z"
         id="path407" />
      <path
         d="m 118.03,111.17 1.0486,4.1226 5.8288,-1.8846 c -1.0325,-1.2281 -1.5437,-2.5809 -1.4592,-4.0762 z"
         id="path409" />
      <path
         d="m 128.42,105.57 a 4.0586,4.0586 0 0 1 4.0586,4.0586 4.0586,4.0586 0 1 1 -4.0586,-4.0586 z"
         id="path411" />
    </g>
    <path
       d="m 94.045,47.722 c 29.358,65.036 30.307,128.58 -1.2014,190.41"
       fill="none"
       stroke="#00467b"
       stroke-linecap="round"
       stroke-linejoin="round"
       stroke-width="9.5937"
       id="path415"
       style="fill:none;fill-opacity:1;stroke:#f7f7ff;stroke-opacity:1" />
    <path
       d="m 9.3533,152.27 c 8.4686,-3.823 16.912,-7.1642 25.329,-10.015 27.313,-9.2492 54.354,-13.332 81.107,-11.945 28.319,1.4688 56.315,9.0685 83.97,23.161"
       fill="none"
       stroke="#00467b"
       stroke-linecap="round"
       stroke-linejoin="round"
       stroke-width="9.5937"
       id="path417"
       style="stroke:#f7f7ff;stroke-opacity:1" />
  </g>
</svg>
