<?xml version="1.0" encoding="UTF-8" standalone="no"?>
<svg
   xmlns:osb="http://www.openswatchbook.org/uri/2009/osb"
   xmlns:dc="http://purl.org/dc/elements/1.1/"
   xmlns:cc="http://creativecommons.org/ns#"
   xmlns:rdf="http://www.w3.org/1999/02/22-rdf-syntax-ns#"
   xmlns:svg="http://www.w3.org/2000/svg"
   xmlns="http://www.w3.org/2000/svg"
   xmlns:xlink="http://www.w3.org/1999/xlink"
   xmlns:sodipodi="http://sodipodi.sourceforge.net/DTD/sodipodi-0.dtd"
   xmlns:inkscape="http://www.inkscape.org/namespaces/inkscape"
   version="1.1"
   width="187.62289"
   height="187.623"
   id="svg1148"
   sodipodi:docname="logo-alt.svg"
   inkscape:version="1.0.2 (1.0.2+r75+1)">
  <metadata
     id="metadata1154">
    <rdf:RDF>
      <cc:Work
         rdf:about="">
        <dc:format>image/svg+xml</dc:format>
        <dc:type
           rdf:resource="http://purl.org/dc/dcmitype/StillImage" />
        <dc:title></dc:title>
      </cc:Work>
    </rdf:RDF>
  </metadata>
  <defs
     id="defs1152">
    <linearGradient
       id="linearGradient3150"
       osb:paint="solid">
      <stop
         style="stop-color:#ffffff;stop-opacity:1;"
         offset="0"
         id="stop3148" />
    </linearGradient>
    <linearGradient
       id="linearGradient3108"
       osb:paint="solid">
      <stop
         style="stop-color:#e30000;stop-opacity:1;"
         offset="0"
         id="stop3106" />
    </linearGradient>
    <linearGradient
       id="linearGradient1158"
       osb:paint="solid">
      <stop
         style="stop-color:#e30000;stop-opacity:0;"
         offset="0"
         id="stop1156" />
    </linearGradient>
    <linearGradient
       inkscape:collect="always"
       xlink:href="#linearGradient1158"
       id="linearGradient3110"
       x1="375.4241"
       y1="302.33813"
       x2="532.69263"
       y2="302.33813"
       gradientUnits="userSpaceOnUse"
       gradientTransform="translate(-355.2877,-206.0515)" />
    <linearGradient
       inkscape:collect="always"
       xlink:href="#linearGradient1158"
       id="linearGradient3152"
       x1="0"
       y1="297.63779"
       x2="841.88977"
       y2="297.63779"
       gradientUnits="userSpaceOnUse"
       gradientTransform="translate(3.51105,13.4893)" />
  </defs>
  <sodipodi:namedview
     pagecolor="#ffffff"
     bordercolor="#666666"
     borderopacity="1"
     objecttolerance="10"
     gridtolerance="10"
     guidetolerance="10"
     inkscape:pageopacity="0"
     inkscape:pageshadow="2"
     inkscape:window-width="2488"
     inkscape:window-height="1043"
     id="namedview1150"
     showgrid="false"
     inkscape:zoom="1.1046577"
     inkscape:cx="65.657185"
     inkscape:cy="91.586287"
     inkscape:window-x="72"
     inkscape:window-y="0"
     inkscape:window-maximized="1"
     inkscape:current-layer="svg1148"
     inkscape:pagecheckerboard="true"
     fit-margin-top="0"
     fit-margin-left="0"
     fit-margin-right="0"
     fit-margin-bottom="0" />
  <path
     d="M 3.51105,13.4893 V 608.7649 H 845.4008 V 13.4893 Z"
     style="fill:url(#linearGradient3152);fill-opacity:1;fill-rule:evenodd"
     id="path1038" />
  <path
     d="m 58.1244,34.4131 c -1.9942,8.2175 -1.3983,17.8088 1.8661,26.0259 l -8.3113,26.9059"
     style="fill:#ec610c;fill-rule:evenodd;stroke:#ec610c;stroke-width:0.5669;stroke-linecap:butt;stroke-linejoin:miter;stroke-dasharray:none"
     id="path1040" />
  <path
     d="M 77.7094,82.4982 59.9905,60.439 39.1418,49.8737"
     style="fill:#ec610c;fill-rule:evenodd;stroke:#ec610c;stroke-width:0.5669;stroke-linecap:butt;stroke-linejoin:miter;stroke-dasharray:none"
     id="path1042" />
  <path
     d="M 42.1161,88.9558 45.7625,79.88 59.9905,60.439 90.4206,20.0991"
     style="fill:#ec610c;fill-rule:evenodd;stroke:#ec610c;stroke-width:0.5669;stroke-linecap:butt;stroke-linejoin:miter;stroke-dasharray:none"
     id="path1044" />
  <path
     d="M 98.8251,46.965 59.9905,60.439"
     style="fill:#ec610c;fill-rule:evenodd;stroke:#ec610c;stroke-width:0.5669;stroke-linecap:butt;stroke-linejoin:miter;stroke-dasharray:none"
     id="path1046" />
  <path
     d="m 39.1418,49.8737 -3.2406,22.6836 c 0.6739,5.8592 1.3481,11.7188 2.022,17.5779"
     style="fill:#ec610c;fill-rule:evenodd;stroke:#ec610c;stroke-width:0.5669;stroke-linecap:butt;stroke-linejoin:miter;stroke-dasharray:none"
     id="path1048" />
  <path
     d="m 25.6094,73.3998 10.2918,-0.8425 9.8613,7.3227 6.6097,5.222"
     style="fill:#ec610c;fill-rule:evenodd;stroke:#ec610c;stroke-width:0.5669;stroke-linecap:butt;stroke-linejoin:miter;stroke-dasharray:none"
     id="path1050" />
  <path
     d="M 59.9905,58.5704 A 1.8686,1.8686 0 0 1 61.859,60.439 1.8686,1.8686 0 1 1 59.9905,58.5704 Z"
     style="fill:#ec610c;fill-rule:evenodd;stroke:#ec610c;stroke-width:0.5669;stroke-linecap:butt;stroke-linejoin:miter;stroke-dasharray:none"
     id="path1052" />
  <path
     d="m 45.7625,78.776 a 1.104,1.104 0 0 1 1.104,1.104 1.104,1.104 0 1 1 -1.104,-1.104 z"
     style="fill:#ec610c;fill-rule:evenodd;stroke:#ec610c;stroke-width:0.5669;stroke-linecap:butt;stroke-linejoin:miter;stroke-dasharray:none"
     id="path1054" />
  <path
     d="m 35.9012,70.6887 a 1.8686,1.8686 0 0 1 1.8686,1.8686 1.8686,1.8686 0 1 1 -1.8686,-1.8686 z"
     style="fill:#ec610c;fill-rule:evenodd;stroke:#ec610c;stroke-width:0.5669;stroke-linecap:butt;stroke-linejoin:miter;stroke-dasharray:none"
     id="path1056" />
  <path
     d="M 28.4018,113.0399 28.2617,93.1803"
     style="fill:#ec610c;fill-rule:evenodd;stroke:#ec610c;stroke-width:0.5669;stroke-linecap:butt;stroke-linejoin:miter;stroke-dasharray:none"
     id="path1058" />
  <path
     d="m 24.4981,94.4892 c 3.2955,35.7892 26.6798,59.5006 65.0966,74.0663"
     style="fill:#ec610c;fill-rule:evenodd;stroke:#ec610c;stroke-width:0.5669;stroke-linecap:butt;stroke-linejoin:miter;stroke-dasharray:none"
     id="path1060" />
  <path
     d="m 37.9232,90.1352 6.1147,20.5118 8.4523,15.9185 9.6487,19.6523 19.1407,18.9371"
     style="fill:#ec610c;fill-rule:evenodd;stroke:#ec610c;stroke-width:0.5669;stroke-linecap:butt;stroke-linejoin:miter;stroke-dasharray:none"
     id="path1062" />
  <path
     d="m 31.4847,120.9449 48.1938,10.3417 20.7494,3.4062"
     style="fill:#ec610c;fill-rule:evenodd;stroke:#ec610c;stroke-width:0.5669;stroke-linecap:butt;stroke-linejoin:miter;stroke-dasharray:none"
     id="path1064" />
  <path
     d="m 48.1103,87.4208 1.9852,7.0986 2.3947,32.0461"
     style="fill:#ec610c;fill-rule:evenodd;stroke:#ec610c;stroke-width:0.5669;stroke-linecap:butt;stroke-linejoin:miter;stroke-dasharray:none"
     id="path1066" />
  <path
     d="m 50.0955,94.5194 23.5253,14.5099 -21.7977,16.2801"
     style="fill:#ec610c;fill-rule:evenodd;stroke:#ec610c;stroke-width:0.5669;stroke-linecap:butt;stroke-linejoin:miter;stroke-dasharray:none"
     id="path1068" />
  <path
     d="M 79.6785,131.2866 73.6208,109.0293"
     style="fill:#ec610c;fill-rule:evenodd;stroke:#ec610c;stroke-width:0.5669;stroke-linecap:butt;stroke-linejoin:miter;stroke-dasharray:none"
     id="path1070" />
  <path
     d="M 104.473,83.6972 73.6208,109.0293"
     style="fill:#ec610c;fill-rule:evenodd;stroke:#ec610c;stroke-width:0.5669;stroke-linecap:butt;stroke-linejoin:miter;stroke-dasharray:none"
     id="path1072" />
  <path
     d="m 77.1931,81.8555 27.5598,34.0761"
     style="fill:#ec610c;fill-rule:evenodd;stroke:#ec610c;stroke-width:0.5669;stroke-linecap:butt;stroke-linejoin:miter;stroke-dasharray:none"
     id="path1074" />
  <path
     d="m 56.0258,150.5674 6.1131,-4.3496 17.5396,-14.9312 19.5696,-22.1614"
     style="fill:#ec610c;fill-rule:evenodd;stroke:#ec610c;stroke-width:0.5669;stroke-linecap:butt;stroke-linejoin:miter;stroke-dasharray:none"
     id="path1076" />
  <path
     d="m 80.4699,164.7949 3.5761,-15.4763 -4.3675,-18.032"
     style="fill:#ec610c;fill-rule:evenodd;stroke:#ec610c;stroke-width:0.5669;stroke-linecap:butt;stroke-linejoin:miter;stroke-dasharray:none"
     id="path1078" />
  <path
     d="m 97.6393,145.716 -13.5933,3.6026 10.2361,7.0215"
     style="fill:#ec610c;fill-rule:evenodd;stroke:#ec610c;stroke-width:0.5669;stroke-linecap:butt;stroke-linejoin:miter;stroke-dasharray:none"
     id="path1080" />
  <path
     d="m 73.6208,107.9253 a 1.104,1.104 0 0 1 1.1041,1.104 1.104,1.104 0 1 1 -1.1041,-1.104 z"
     style="fill:#ec610c;fill-rule:evenodd;stroke:#ec610c;stroke-width:0.5669;stroke-linecap:butt;stroke-linejoin:miter;stroke-dasharray:none"
     id="path1082" />
  <path
     d="m 31.6219,120.1322 a 1.104,1.104 0 0 1 1.104,1.104 1.104,1.104 0 1 1 -1.104,-1.104 z"
     style="fill:#ec610c;fill-rule:evenodd;stroke:#ec610c;stroke-width:0.5669;stroke-linecap:butt;stroke-linejoin:miter;stroke-dasharray:none"
     id="path1084" />
  <path
     d="m 28.3954,111.0265 a 1.104,1.104 0 0 1 1.104,1.1041 1.104,1.104 0 1 1 -1.104,-1.1041 z"
     style="fill:#ec610c;fill-rule:evenodd;stroke:#ec610c;stroke-width:0.5669;stroke-linecap:butt;stroke-linejoin:miter;stroke-dasharray:none"
     id="path1086" />
  <path
     d="m 99.1838,108.0948 a 1.104,1.104 0 0 1 1.104,1.104 1.104,1.104 0 1 1 -1.104,-1.104 z"
     style="fill:#ec610c;fill-rule:evenodd;stroke:#ec610c;stroke-width:0.5669;stroke-linecap:butt;stroke-linejoin:miter;stroke-dasharray:none"
     id="path1088" />
  <path
     d="m 50.0955,93.4154 a 1.104,1.104 0 0 1 1.1041,1.104 1.104,1.104 0 1 1 -1.1041,-1.104 z"
     style="fill:#ec610c;fill-rule:evenodd;stroke:#ec610c;stroke-width:0.5669;stroke-linecap:butt;stroke-linejoin:miter;stroke-dasharray:none"
     id="path1090" />
  <path
     d="m 43.9152,109.1315 a 1.104,1.104 0 0 1 1.104,1.1041 1.104,1.104 0 1 1 -1.104,-1.1041 z"
     style="fill:#ec610c;fill-rule:evenodd;stroke:#ec610c;stroke-width:0.5669;stroke-linecap:butt;stroke-linejoin:miter;stroke-dasharray:none"
     id="path1092" />
  <path
     d="m 84.046,148.2145 a 1.104,1.104 0 0 1 1.1041,1.1041 1.104,1.104 0 1 1 -1.1041,-1.1041 z"
     style="fill:#ec610c;fill-rule:evenodd;stroke:#ec610c;stroke-width:0.5669;stroke-linecap:butt;stroke-linejoin:miter;stroke-dasharray:none"
     id="path1094" />
  <path
     d="m 52.3662,123.0358 a 1.8686,1.8686 0 0 1 1.8686,1.8686 1.8686,1.8686 0 1 1 -1.8686,-1.8686 z"
     style="fill:#ec610c;fill-rule:evenodd;stroke:#ec610c;stroke-width:0.5669;stroke-linecap:butt;stroke-linejoin:miter;stroke-dasharray:none"
     id="path1096" />
  <path
     d="m 88.975,94.5543 a 1.8686,1.8686 0 0 1 1.8685,1.8686 1.8686,1.8686 0 1 1 -1.8685,-1.8686 z"
     style="fill:#ec610c;fill-rule:evenodd;stroke:#ec610c;stroke-width:0.5669;stroke-linecap:butt;stroke-linejoin:miter;stroke-dasharray:none"
     id="path1098" />
  <path
     d="m 56.0258,148.6988 a 1.8686,1.8686 0 0 1 1.8686,1.8686 1.8686,1.8686 0 1 1 -1.8686,-1.8686 z"
     style="fill:#ec610c;fill-rule:evenodd;stroke:#ec610c;stroke-width:0.5669;stroke-linecap:butt;stroke-linejoin:miter;stroke-dasharray:none"
     id="path1100" />
  <path
     d="m 79.6785,129.418 a 1.8686,1.8686 0 0 1 1.8686,1.8686 1.8686,1.8686 0 1 1 -1.8686,-1.8686 z"
     style="fill:#ec610c;fill-rule:evenodd;stroke:#ec610c;stroke-width:0.5669;stroke-linecap:butt;stroke-linejoin:miter;stroke-dasharray:none"
     id="path1102" />
  <path
     d="m 80.4699,162.9264 a 1.8686,1.8686 0 0 1 1.8685,1.8685 1.8686,1.8686 0 1 1 -1.8685,-1.8685 z"
     style="fill:#ec610c;fill-rule:evenodd;stroke:#ec610c;stroke-width:0.5669;stroke-linecap:butt;stroke-linejoin:miter;stroke-dasharray:none"
     id="path1104" />
  <path
     d="m 110.7992,162.9985 4.6182,13.5519"
     style="fill:none;stroke:#ec610c;stroke-width:2.9999;stroke-linecap:round;stroke-linejoin:round;stroke-dasharray:none"
     id="path1114" />
  <path
     d="m 116.4267,161.1422 4.575,13.5664"
     style="fill:none;stroke:#ec610c;stroke-width:2.9999;stroke-linecap:round;stroke-linejoin:round;stroke-dasharray:none"
     id="path1116" />
  <path
     d="m 121.7563,158.9296 4.7098,13.5202"
     style="fill:none;stroke:#ec610c;stroke-width:2.9999;stroke-linecap:round;stroke-linejoin:round;stroke-dasharray:none"
     id="path1118" />
  <path
     d="m 127.0816,156.3688 4.7921,13.4913"
     style="fill:none;stroke:#ec610c;stroke-width:2.9999;stroke-linecap:round;stroke-linejoin:round;stroke-dasharray:none"
     id="path1120" />
  <path
     d="m 132.3774,153.6113 5.0544,13.3953"
     style="fill:none;stroke:#ec610c;stroke-width:2.9999;stroke-linecap:round;stroke-linejoin:round;stroke-dasharray:none"
     id="path1122" />
  <path
     d="m 137.6945,150.5487 5.2687,13.3124"
     style="fill:none;stroke:#ec610c;stroke-width:2.9999;stroke-linecap:round;stroke-linejoin:round;stroke-dasharray:none"
     id="path1124" />
  <path
     d="m 142.9736,147.2729 5.2688,13.3124"
     style="fill:none;stroke:#ec610c;stroke-width:2.9999;stroke-linecap:round;stroke-linejoin:round;stroke-dasharray:none"
     id="path1126" />
  <path
     d="m 148.0403,143.89 5.2688,13.3124"
     style="fill:none;stroke:#ec610c;stroke-width:2.9999;stroke-linecap:round;stroke-linejoin:round;stroke-dasharray:none"
     id="path1128" />
  <path
     d="m 153.107,140.3793 5.2688,13.3124"
     style="fill:none;stroke:#ec610c;stroke-width:2.9999;stroke-linecap:round;stroke-linejoin:round;stroke-dasharray:none"
     id="path1130" />
  <path
     d="m 122.6543,34.4248 23.3895,10.0335 c 0.9827,0.4215 1.3209,1.5183 0.752,2.4378 l -7.537,12.1768 c -0.5692,0.9196 -1.8383,1.3266 -2.8208,0.9051 L 113.0485,49.9445 c -0.9828,-0.4215 -1.321,-1.5182 -0.752,-2.4375 l 7.537,-12.1771 c 0.5689,-0.9195 1.838,-1.3266 2.8208,-0.9051 z"
     style="fill:#ec610c;fill-rule:evenodd"
     id="path1132" />
  <path
     d="m 147.1413,48.295 c 1.2748,1.1577 2.0016,2.7995 2.0016,4.5216 0,3.3732 -2.7346,6.1078 -6.1078,6.1078 -0.794,0 -1.5803,-0.1548 -2.3154,-0.4558 z m 0.3787,1.9548 c 0.4207,-0.0561 0.853,0.5802 0.9655,1.4216 0.1126,0.8416 -0.1372,1.5692 -0.5581,1.6254 -0.4207,0.0564 -0.853,-0.5803 -0.9655,-1.4216 -0.1125,-0.8413 0.1372,-1.569 0.5581,-1.6254 z"
     style="fill:#ec610c;fill-rule:evenodd"
     id="path1134" />
  <path
     d="m 118.9678,53.143 3.6714,1.5637 -2.5836,5.1333 c -0.9903,-1.1334 -2.1712,-1.8015 -3.5695,-1.9377 z"
     style="fill:#ec610c;fill-rule:evenodd"
     id="path1136" />
  <path
     d="m 106.4477,64.0172 0.9837,3.8675 5.4681,-1.768 c -0.9686,-1.1521 -1.4481,-2.4212 -1.3689,-3.8239 z"
     style="fill:#ec610c;fill-rule:evenodd"
     id="path1138" />
  <path
     d="m 116.197,58.7691 a 3.8074,3.8074 0 0 1 3.8074,3.8074 3.8074,3.8074 0 1 1 -3.8074,-3.8074 z"
     style="fill:#ec610c;fill-rule:evenodd"
     id="path1140" />
  <path
     d="m 83.9502,4.5 c 27.5414,61.011 28.4312,120.6182 -1.127,178.623"
     style="fill:none;stroke:#f7f7ff;stroke-width:9;stroke-linecap:round;stroke-linejoin:round;stroke-dasharray:none;stroke-opacity:1"
     id="path1142" />
  <path
     d="m 4.5,102.5751 c 7.9445,-3.5864 15.8657,-6.7208 23.7617,-9.3948 25.623,-8.6768 50.9904,-12.5072 76.0878,-11.2056 26.5661,1.3779 52.8301,8.5073 78.7734,21.7274"
     style="fill:none;stroke:#f7f7ff;stroke-width:9;stroke-linecap:round;stroke-linejoin:round;stroke-dasharray:none;stroke-opacity:1"
     id="path1144" />
  <path
     d="m 106.3508,172.5393 a 76.6331,76.6331 0 1 1 67.0428,-58.8332"
     style="fill:url(#linearGradient3110);fill-opacity:1;fill-rule:evenodd;stroke:#ec610c;stroke-width:4;stroke-linecap:round;stroke-linejoin:round;stroke-dasharray:none"
     id="path1146" />
</svg>
