<?xml version="1.0" encoding="UTF-8"?>
<svg width="200mm" height="200mm" version="1.1" viewBox="0 0 200 200" xmlns="http://www.w3.org/2000/svg" xmlns:cc="http://creativecommons.org/ns#" xmlns:dc="http://purl.org/dc/elements/1.1/" xmlns:rdf="http://www.w3.org/1999/02/22-rdf-syntax-ns#">
 <metadata>
  <rdf:RDF>
   <cc:Work rdf:about="">
    <dc:format>image/svg+xml</dc:format>
    <dc:type rdf:resource="http://purl.org/dc/dcmitype/StillImage"/>
    <dc:title/>
   </cc:Work>
  </rdf:RDF>
 </metadata>
 <g transform="translate(-4.5564 -42.925)">
  <g fill="#ec610c" fill-rule="evenodd" stroke="#ec610c" stroke-width=".6043">
   <path d="m66.515 79.608c-2.1257 8.7596-1.4905 18.984 1.9892 27.743l-8.8595 28.681"/>
   <path d="m87.392 130.87-18.888-23.514-22.224-11.262"/>
   <path d="m49.451 137.75 3.887-9.6745 15.167-20.724 32.438-43.001"/>
   <path d="m109.9 92.988-41.396 14.363"/>
   <path d="m46.28 96.089-3.4544 24.18c0.71836 6.2457 1.4371 12.492 2.1554 18.737"/>
   <path d="m31.855 121.17 10.971-0.89805 10.512 7.8058 7.0457 5.5664"/>
   <path d="m68.504 105.36a1.9919 1.9919 0 0 1 1.9918 1.9919 1.9919 1.9919 0 1 1-1.9918-1.9919z"/>
   <path d="m53.338 126.9a1.1768 1.1768 0 0 1 1.1768 1.1768 1.1768 1.1768 0 1 1-1.1768-1.1768z"/>
   <path d="m42.826 118.28a1.9919 1.9919 0 0 1 1.9919 1.9919 1.9919 1.9919 0 1 1-1.9919-1.9919z"/>
   <path d="m34.832 163.42-0.1496-21.17"/>
   <path d="m30.671 143.65c3.5129 38.15 28.44 63.426 69.391 78.952"/>
   <path d="m44.981 139.01 6.5181 21.865 9.0098 16.969 10.285 20.949 20.403 20.186"/>
   <path d="m38.118 171.85 51.373 11.024 22.118 3.6309"/>
   <path d="m55.84 136.11 2.1161 7.5668 2.5526 34.16"/>
   <path d="m57.957 143.68 25.077 15.467-23.236 17.354"/>
   <path d="m89.491 182.87-6.4573-23.726"/>
   <path d="m115.92 132.14-32.887 27.003"/>
   <path d="m86.842 130.18 29.378 36.324"/>
   <path d="m64.278 203.42 6.5164-4.6366 18.697-15.916 20.861-23.623"/>
   <path d="m90.335 218.59 3.812-16.497-4.6556-19.221"/>
   <path d="m108.64 198.25-14.49 3.8402 10.911 7.4848"/>
   <path d="m83.034 157.97a1.1768 1.1768 0 0 1 1.1769 1.1769 1.1768 1.1768 0 1 1-1.1769-1.1769z"/>
   <path d="m38.264 170.98a1.1768 1.1768 0 0 1 1.1768 1.1768 1.1768 1.1768 0 1 1-1.1768-1.1768z"/>
   <path d="m34.825 161.28a1.1768 1.1768 0 0 1 1.1768 1.1769 1.1768 1.1768 0 1 1-1.1768-1.1769z"/>
   <path d="m110.28 158.15a1.1768 1.1768 0 0 1 1.1769 1.1768 1.1768 1.1768 0 1 1-1.1769-1.1768z"/>
   <path d="m57.957 142.5a1.1768 1.1768 0 0 1 1.1769 1.1768 1.1768 1.1768 0 1 1-1.1769-1.1768z"/>
   <path d="m51.369 159.26a1.1768 1.1768 0 0 1 1.1768 1.1769 1.1768 1.1768 0 1 1-1.1768-1.1769z"/>
   <path d="m94.147 200.92a1.1768 1.1768 0 0 1 1.177 1.1769 1.1768 1.1768 0 1 1-1.177-1.1769z"/>
   <path d="m60.377 174.08a1.9919 1.9919 0 0 1 1.9919 1.9918 1.9919 1.9919 0 1 1-1.9919-1.9918z"/>
   <path d="m99.401 143.72a1.9919 1.9919 0 0 1 1.9918 1.9918 1.9919 1.9919 0 1 1-1.9918-1.9918z"/>
   <path d="m64.278 201.43a1.9919 1.9919 0 0 1 1.9918 1.9919 1.9919 1.9919 0 1 1-1.9918-1.9919z"/>
   <path d="m89.491 180.88a1.9919 1.9919 0 0 1 1.9919 1.9919 1.9919 1.9919 0 1 1-1.9919-1.9919z"/>
   <path d="m90.335 216.6a1.9919 1.9919 0 0 1 1.9917 1.9918 1.9919 1.9919 0 1 1-1.9917-1.9918z"/>
  </g>
  <g fill="none" stroke="#ec610c" stroke-linecap="round" stroke-linejoin="round" stroke-width="3.1978">
   <path d="m122.66 216.68 4.9228 14.446"/>
   <path d="m128.66 214.7 4.8768 14.461"/>
   <path d="m134.34 212.34 5.0205 14.412"/>
   <path d="m140.02 209.61 5.1082 14.381"/>
   <path d="m145.67 206.67 5.3878 14.279"/>
   <path d="m151.33 203.4 5.6162 14.191"/>
   <path d="m156.96 199.91 5.6164 14.191"/>
   <path d="m162.36 196.31 5.6164 14.191"/>
   <path d="m167.76 192.56 5.6164 14.191"/>
  </g>
  <g fill="#ec610c" fill-rule="evenodd" stroke-width="1.066">
   <path d="m135.3 79.621 24.933 10.695c1.0475 0.44935 1.408 1.6185 0.8016 2.5986l-8.0342 12.98c-0.60675 0.98022-1.9596 1.4141-3.0069 0.96474l-24.932-10.695c-1.0476-0.44927-1.4081-1.6183-0.80163-2.5983l8.0342-12.98c0.6064-0.98017 1.9592-1.4141 3.0068-0.96479z"/>
   <path d="m161.4 94.406c1.3589 1.2341 2.1336 2.9842 2.1336 4.8199 0 3.5958-2.915 6.5108-6.5108 6.5108-0.84633 0-1.6845-0.16539-2.4681-0.48593zm0.40367 2.0838c0.44845-0.05953 0.90923 0.61845 1.0292 1.5154 0.12019 0.89708-0.14641 1.6727-0.59488 1.7326-0.44847 0.06-0.90929-0.6186-1.0292-1.5154-0.1202-0.89683 0.14641-1.6725 0.59493-1.7326z"/>
   <path d="m131.37 99.574 3.9136 1.6668-2.7541 5.472c-1.0556-1.2082-2.3144-1.9204-3.805-2.0656z"/>
   <path d="m118.03 111.17 1.0486 4.1226 5.8288-1.8846c-1.0325-1.2281-1.5437-2.5809-1.4592-4.0762z"/>
   <path d="m128.42 105.57a4.0586 4.0586 0 0 1 4.0586 4.0586 4.0586 4.0586 0 1 1-4.0586-4.0586z"/>
  </g>
  <path d="m94.045 47.722c29.358 65.036 30.307 128.58-1.2014 190.41" fill="none" stroke="#00467b" stroke-linecap="round" stroke-linejoin="round" stroke-width="9.5937"/>
  <path d="m9.3533 152.27c8.4686-3.823 16.912-7.1642 25.329-10.015 27.313-9.2492 54.354-13.332 81.107-11.945 28.319 1.4688 56.315 9.0685 83.97 23.161" fill="none" stroke="#00467b" stroke-linecap="round" stroke-linejoin="round" stroke-width="9.5937"/>
 </g>
</svg>
