<?xml version="1.0" encoding="UTF-8"?>
<svg width="713.03" height="187.62" version="1.1" viewBox="0 0 713.03 187.62" xmlns="http://www.w3.org/2000/svg" xmlns:cc="http://creativecommons.org/ns#" xmlns:dc="http://purl.org/dc/elements/1.1/" xmlns:rdf="http://www.w3.org/1999/02/22-rdf-syntax-ns#">
 <metadata>
  <rdf:RDF>
   <cc:Work rdf:about="">
    <dc:format>image/svg+xml</dc:format>
    <dc:type rdf:resource="http://purl.org/dc/dcmitype/StillImage"/>
    <dc:title/>
   </cc:Work>
  </rdf:RDF>
 </metadata>
 <g fill="#ec610c" fill-rule="evenodd">
  <g stroke="#ec610c" stroke-width=".5669">
   <path d="m358.86 34.413c-1.9942 8.2175-1.3983 17.809 1.8661 26.026l-8.3113 26.906"/>
   <path d="m378.44 82.498-17.719-22.059-20.849-10.565"/>
   <path d="m342.85 88.956 3.6464-9.0758 14.228-19.441 30.43-40.34"/>
   <path d="m399.56 46.965-38.835 13.474"/>
   <path d="m339.88 49.874-3.2406 22.684c0.6739 5.8592 1.3481 11.719 2.022 17.578"/>
   <path d="m326.34 73.4 10.292-0.8425 9.8613 7.3227 6.6097 5.222"/>
   <path d="m360.73 58.57a1.8686 1.8686 0 0 1 1.8685 1.8686 1.8686 1.8686 0 1 1-1.8685-1.8686z"/>
   <path d="m346.5 78.776a1.104 1.104 0 0 1 1.104 1.104 1.104 1.104 0 1 1-1.104-1.104z"/>
   <path d="m336.64 70.689a1.8686 1.8686 0 0 1 1.8686 1.8686 1.8686 1.8686 0 1 1-1.8686-1.8686z"/>
   <path d="m329.14 113.04-0.1401-19.86"/>
   <path d="m325.23 94.489c3.2955 35.789 26.68 59.501 65.097 74.066"/>
   <path d="m338.66 90.135 6.1147 20.512 8.4523 15.918 9.6487 19.652 19.141 18.937"/>
   <path d="m332.22 120.94 48.194 10.342 20.749 3.4062"/>
   <path d="m348.84 87.421 1.9852 7.0986 2.3947 32.046"/>
   <path d="m350.83 94.519 23.525 14.51-21.798 16.28"/>
   <path d="m380.41 131.29-6.0577-22.257"/>
   <path d="m405.21 83.697-30.852 25.332"/>
   <path d="m377.93 81.856 27.56 34.076"/>
   <path d="m356.76 150.57 6.1131-4.3496 17.54-14.931 19.57-22.161"/>
   <path d="m381.2 164.79 3.5761-15.476-4.3675-18.032"/>
   <path d="m398.37 145.72-13.593 3.6026 10.236 7.0215"/>
   <path d="m374.36 107.93a1.104 1.104 0 0 1 1.1041 1.104 1.104 1.104 0 1 1-1.1041-1.104z"/>
   <path d="m332.36 120.13a1.104 1.104 0 0 1 1.104 1.104 1.104 1.104 0 1 1-1.104-1.104z"/>
   <path d="m329.13 111.03a1.104 1.104 0 0 1 1.104 1.1041 1.104 1.104 0 1 1-1.104-1.1041z"/>
   <path d="m399.92 108.09a1.104 1.104 0 0 1 1.104 1.104 1.104 1.104 0 1 1-1.104-1.104z"/>
   <path d="m350.83 93.415a1.104 1.104 0 0 1 1.1041 1.104 1.104 1.104 0 1 1-1.1041-1.104z"/>
   <path d="m344.65 109.13a1.104 1.104 0 0 1 1.104 1.1041 1.104 1.104 0 1 1-1.104-1.1041z"/>
   <path d="m384.78 148.21a1.104 1.104 0 0 1 1.1041 1.1041 1.104 1.104 0 1 1-1.1041-1.1041z"/>
   <path d="m353.1 123.04a1.8686 1.8686 0 0 1 1.8686 1.8686 1.8686 1.8686 0 1 1-1.8686-1.8686z"/>
   <path d="m389.71 94.554a1.8686 1.8686 0 0 1 1.8685 1.8686 1.8686 1.8686 0 1 1-1.8685-1.8686z"/>
   <path d="m356.76 148.7a1.8686 1.8686 0 0 1 1.8686 1.8686 1.8686 1.8686 0 1 1-1.8686-1.8686z"/>
   <path d="m380.41 129.42a1.8686 1.8686 0 0 1 1.8686 1.8686 1.8686 1.8686 0 1 1-1.8686-1.8686z"/>
   <path d="m381.2 162.93a1.8686 1.8686 0 0 1 1.8685 1.8685 1.8686 1.8686 0 1 1-1.8685-1.8685z"/>
  </g>
  <path d="m83.547 76.216 1.8269 6.0829c2.0344-4.0485 6.0829-6.0829 12.166-6.0829 7.0172 0 12.207 2.6365 15.571 7.9098 4.775-5.2733 10.131-7.9098 16.048-7.9098 15.405 0 23.128 7.1002 23.128 21.301v39.529h-12.166v-39.529c0-6.0829-3.4671-9.135-10.401-9.135-4.9204 0-8.5329 2.0348-10.9 6.0832v42.581h-12.166v-43.183c-1.4117-3.6538-4.4637-5.4811-9.114-5.4811-6.0831 0-10.132 2.0348-12.166 6.0832v42.581h-12.166v-60.83zm116.26 24.332c0-8.0969-4.0691-12.166-12.166-12.166h-18.249v-12.166h18.249c16.214 0 24.332 8.1176 24.332 24.332v36.498h-10.339l-1.8269-6.0828c-4.0691 4.0481-9.1346 6.0828-15.218 6.0828-14.18 0-21.28-6.0828-21.28-18.249 0-12.166 7.1003-18.249 21.28-18.249 6.0832 0 11.149 2.0347 15.218 6.0828zm0 21.301v-6.0828c-4.0691-2.0348-9.1346-3.0518-15.218-3.0518-6.0829 0-9.1139 2.0344-9.1139 6.0828 0 4.0485 3.031 6.0829 9.1139 6.0829 6.0832 0 11.149-1.0171 15.218-3.0311zm35.359-45.632v60.83h-12.166v-60.83zm0-24.332v12.166h-12.166v-12.166zm11.027 85.161v-12.166h27.363c4.0691 0 6.0829-2.0344 6.0829-6.0829 0-4.4637-2.0138-6.6849-6.0829-6.6849h-9.1142c-12.166 0-18.249-5.8754-18.249-17.647 0-12.166 6.0831-18.249 18.249-18.249h27.363v12.166h-27.363c-4.0485 0-6.0829 2.0348-6.0829 6.0832 0 3.6539 2.0344 5.4808 6.0829 5.4808h9.1142c12.166 0 18.249 6.2906 18.249 18.851 0 12.166-6.0832 18.249-18.249 18.249z"/>
 </g>
 <g fill-rule="evenodd">
  <path d="m66.913 137.04h-12.166l0.1253-18.249h-31.266l-11.44 18.249h-12.166l52.571-85.161h15.82zm-35.728-30.415h23.854l1.5798-42.581z" fill="#00467b"/>
  <path d="m560.14 111.51v4.256c0 6.0828 3.0311 9.1139 9.1139 9.1139h24.332v12.166h-24.332c-14.18 0-21.28-7.1002-21.28-21.28v-18.249c0-14.2 7.1002-21.301 21.28-21.301h6.0832c14.2 0 21.301 7.1002 21.301 21.301v13.993zm0-9.737h24.332v-4.2559c0-6.0829-3.0517-9.135-9.1346-9.135h-6.0832c-6.0828 0-9.1139 3.0521-9.1139 9.135zm59.69 13.993c0 6.0828 3.0311 9.1139 9.114 9.1139h24.332v12.166h-24.332c-14.18 0-21.28-7.1002-21.28-21.28v-18.249c0-14.2 7.1003-21.301 21.28-21.301h24.332v12.166h-24.332c-6.0829 0-9.114 3.0521-9.114 9.135zm56.701 21.28h-12.166v-85.161h12.166v30.415c4.0484-4.0485 9.1139-6.0829 15.197-6.0829 14.2 0 21.301 7.1002 21.301 21.301v39.529h-12.166v-39.529c0-6.0829-3.0518-9.135-9.1346-9.135-6.0832 0-11.149 1.0174-15.197 3.0521z" fill="#ec610c"/>
  <path d="m561.48 51.884-2.8942 12.166h-21.301l-17.364 72.996h-12.166l17.364-72.996h-21.28l2.8941-12.166z" fill="#00467b"/>
 </g>
 <g fill="none" stroke="#ec610c" stroke-linecap="round" stroke-linejoin="round" stroke-width="2.9999">
  <path d="m411.53 163 4.6182 13.552"/>
  <path d="m417.16 161.14 4.575 13.566"/>
  <path d="m422.49 158.93 4.7098 13.52"/>
  <path d="m427.82 156.37 4.7921 13.491"/>
  <path d="m433.11 153.61 5.0544 13.395"/>
  <path d="m438.43 150.55 5.2687 13.312"/>
  <path d="m443.71 147.27 5.2688 13.312"/>
  <path d="m448.78 143.89 5.2688 13.312"/>
  <path d="m453.84 140.38 5.2688 13.312"/>
 </g>
 <g fill="#ec610c" fill-rule="evenodd">
  <path d="m423.39 34.425 23.39 10.034c0.9827 0.4215 1.3209 1.5183 0.752 2.4378l-7.537 12.177c-0.5692 0.9196-1.8383 1.3266-2.8208 0.9051l-23.39-10.034c-0.9828-0.4215-1.321-1.5182-0.752-2.4375l7.537-12.177c0.5689-0.9195 1.838-1.3266 2.8208-0.9051z"/>
  <path d="m447.88 48.295c1.2748 1.1577 2.0016 2.7995 2.0016 4.5216 0 3.3732-2.7346 6.1078-6.1078 6.1078-0.794 0-1.5803-0.1548-2.3154-0.4558zm0.3787 1.9548c0.4207-0.0561 0.853 0.5802 0.9655 1.4216 0.1126 0.8416-0.1372 1.5692-0.5581 1.6254-0.4207 0.0564-0.853-0.5803-0.9655-1.4216s0.1372-1.569 0.5581-1.6254z"/>
  <path d="m419.7 53.143 3.6714 1.5637-2.5836 5.1333c-0.9903-1.1334-2.1712-1.8015-3.5695-1.9377z"/>
  <path d="m407.18 64.017 0.9837 3.8675 5.4681-1.768c-0.9686-1.1521-1.4481-2.4212-1.3689-3.8239z"/>
  <path d="m416.93 58.769a3.8074 3.8074 0 0 1 3.8074 3.8074 3.8074 3.8074 0 1 1-3.8074-3.8074z"/>
 </g>
 <path d="m384.68 4.5c27.541 61.011 28.431 120.62-1.127 178.62" fill="none" stroke="#00467b" stroke-linecap="round" stroke-linejoin="round" stroke-width="9"/>
 <path d="m305.23 102.58c7.9445-3.5864 15.866-6.7208 23.762-9.3948 25.623-8.6768 50.99-12.507 76.088-11.206 26.566 1.3779 52.83 8.5073 78.773 21.727" fill="none" stroke="#00467b" stroke-linecap="round" stroke-linejoin="round" stroke-width="9"/>
</svg>
