<?xml version="1.0" encoding="UTF-8" standalone="no"?>
<svg
   xmlns:dc="http://purl.org/dc/elements/1.1/"
   xmlns:cc="http://creativecommons.org/ns#"
   xmlns:rdf="http://www.w3.org/1999/02/22-rdf-syntax-ns#"
   xmlns:svg="http://www.w3.org/2000/svg"
   xmlns="http://www.w3.org/2000/svg"
   xmlns:sodipodi="http://sodipodi.sourceforge.net/DTD/sodipodi-0.dtd"
   xmlns:inkscape="http://www.inkscape.org/namespaces/inkscape"
   height="440"
   viewBox="0 0 189.921 31.244"
   width="2500"
   version="1.1"
   id="svg6"
   sodipodi:docname="toyota-7.svg"
   inkscape:version="1.0.2 (1.0.2+r75+1)">
  <metadata
     id="metadata12">
    <rdf:RDF>
      <cc:Work
         rdf:about="">
        <dc:format>image/svg+xml</dc:format>
        <dc:type
           rdf:resource="http://purl.org/dc/dcmitype/StillImage" />
        <dc:title></dc:title>
      </cc:Work>
    </rdf:RDF>
  </metadata>
  <defs
     id="defs10" />
  <sodipodi:namedview
     pagecolor="#ffffff"
     bordercolor="#666666"
     borderopacity="1"
     objecttolerance="10"
     gridtolerance="10"
     guidetolerance="10"
     inkscape:pageopacity="0"
     inkscape:pageshadow="2"
     inkscape:window-width="820"
     inkscape:window-height="480"
     id="namedview8"
     showgrid="false"
     inkscape:pagecheckerboard="true"
     inkscape:zoom="0.526"
     inkscape:cx="1250"
     inkscape:cy="220"
     inkscape:window-x="72"
     inkscape:window-y="27"
     inkscape:window-maximized="0"
     inkscape:current-layer="svg6" />
  <g
     fill="red"
     id="g4">
    <path
       d="M22.477 29.654c-2.515-1.575-4.367-7.011-4.367-13.469 0-.237.001-.471.007-.704l.003.003c-6.994-1.099-12.048-4.111-12.177-7.672l-.021.041C4.21 9.98 3.233 12.439 3.233 15.059c0 7.71 8.463 14.027 19.198 14.586zM0 15.622C0 6.995 10.736 0 23.98 0s23.98 6.995 23.98 15.622-10.736 15.622-23.98 15.622S0 24.249 0 15.622zM23.98 2.254c2.557 0 4.731 3.878 5.537 9.29l.003-.008c4.974-.774 8.457-2.561 8.457-4.639 0-2.79-6.267-5.048-13.997-5.048S9.983 4.108 9.983 6.897c0 2.078 3.482 3.864 8.457 4.639l.003.008c.806-5.411 2.981-9.29 5.537-9.29zm1.548 27.391c10.735-.559 19.199-6.876 19.199-14.586 0-2.62-.978-5.079-2.689-7.206l-.021-.041c-.129 3.561-5.182 6.573-12.177 7.672l.003-.003c.005.233.007.467.007.704 0 6.458-1.854 11.894-4.367 13.469zM23.98 11.946c1.146 0 2.259-.049 3.324-.143l-.001.001c-.53-3.469-1.818-5.917-3.323-5.917s-2.792 2.448-3.323 5.917l-.001-.001c1.065.094 2.178.143 3.324.143zm0 12.846c1.925 0 3.495-4.006 3.579-9.03l.01.003a39.115 39.115 0 0 1-7.178 0l.011-.003c.083 5.025 1.653 9.03 3.578 9.03zM122.362 15.622c0-6.594 5.346-11.939 11.939-11.939 6.596 0 11.941 5.346 11.941 11.939 0 6.595-5.346 11.939-11.941 11.939-6.593 0-11.939-5.345-11.939-11.939zm11.939 7.561c3.683 0 6.668-3.386 6.668-7.562 0-4.175-2.985-7.562-6.668-7.562-3.681 0-6.665 3.386-6.665 7.562s2.985 7.562 6.665 7.562zM159.79 8.657v18.362h-5.03V8.657h.017-7.035V4.505h19.066v4.151h-7.018zM172.893 21.954l-.005.005-1.93 5.061h-5.875l9.288-22.514h6.261l9.289 22.514h-5.876l-1.93-5.061-.005-.005h-4.607zm4.61-3.8h3.165l-.002.001-3.142-8.24h-.044l-3.144 8.24-.001-.001zM67.057 8.657v18.362h-5.031V8.657h.017-7.036V4.505h19.067v4.151h-7.017zM75.362 15.622c0-6.594 5.346-11.939 11.941-11.939 6.594 0 11.94 5.346 11.94 11.939 0 6.595-5.346 11.939-11.94 11.939-6.595 0-11.941-5.345-11.941-11.939zm11.941 7.561c3.681 0 6.667-3.386 6.667-7.562 0-4.175-2.985-7.562-6.667-7.562s-6.667 3.386-6.667 7.562 2.985 7.562 6.667 7.562zM110.802 27.019h2.551V18.47l8.776-13.965h-5.874l-5.453 9.463-5.452-9.463h-5.876l8.777 13.965v8.548h2.551z"
       id="path2" />
  </g>
</svg>
