<?xml version="1.0" encoding="UTF-8" standalone="no"?>
<svg
   xmlns:dc="http://purl.org/dc/elements/1.1/"
   xmlns:cc="http://creativecommons.org/ns#"
   xmlns:rdf="http://www.w3.org/1999/02/22-rdf-syntax-ns#"
   xmlns:svg="http://www.w3.org/2000/svg"
   xmlns="http://www.w3.org/2000/svg"
   xmlns:sodipodi="http://sodipodi.sourceforge.net/DTD/sodipodi-0.dtd"
   xmlns:inkscape="http://www.inkscape.org/namespaces/inkscape"
   width="2200.6968"
   height="660.83545"
   viewBox="0 0 169.679 50.951999"
   version="1.1"
   id="svg2149"
   sodipodi:docname="turkish-airlines.svg"
   inkscape:version="1.0.2 (1.0.2+r75+1)">
  <metadata
     id="metadata2155">
    <rdf:RDF>
      <cc:Work
         rdf:about="">
        <dc:format>image/svg+xml</dc:format>
        <dc:type
           rdf:resource="http://purl.org/dc/dcmitype/StillImage" />
        <dc:title></dc:title>
      </cc:Work>
    </rdf:RDF>
  </metadata>
  <defs
     id="defs2153" />
  <sodipodi:namedview
     pagecolor="#ffffff"
     bordercolor="#666666"
     borderopacity="1"
     objecttolerance="10"
     gridtolerance="10"
     guidetolerance="10"
     inkscape:pageopacity="0"
     inkscape:pageshadow="2"
     inkscape:window-width="2488"
     inkscape:window-height="1016"
     id="namedview2151"
     showgrid="false"
     fit-margin-top="0"
     fit-margin-left="0"
     fit-margin-right="0"
     fit-margin-bottom="0"
     inkscape:pagecheckerboard="true"
     inkscape:zoom="0.3448"
     inkscape:cx="1093.2604"
     inkscape:cy="330.41773"
     inkscape:window-x="72"
     inkscape:window-y="27"
     inkscape:window-maximized="1"
     inkscape:current-layer="svg2149" />
  <path
     fill-rule="evenodd"
     clip-rule="evenodd"
     fill="#28539c"
     d="m 8.225,9.921 h 3.24 V 6.423 H 1.068 V 9.921 H 4.307 V 22.309 H 8.225 Z M 24.668,6.423 v 8.364 c 0,2.064 -0.14,4.318 -2.659,4.318 -2.52,0 -2.659,-2.254 -2.659,-4.318 V 6.423 h -3.919 v 8.931 c 0,2.046 0.08,4.067 1.579,5.606 1.26,1.305 3.24,1.768 5,1.768 1.759,0 3.739,-0.462 4.999,-1.768 1.499,-1.539 1.579,-3.561 1.579,-5.606 V 6.423 Z m 16.859,9.375 c 2.14,-0.4 3.298,-2.296 3.298,-4.487 0,-3.392 -2.259,-4.887 -5.237,-4.887 H 33.729 V 22.31 h 3.919 v -6.112 h 0.04 l 3.699,6.111 h 4.878 z M 37.648,9.582 h 0.379 c 1.28,0 2.719,0.253 2.719,1.98 0,1.728 -1.439,1.98 -2.719,1.98 h -0.379 z m 16.284,3.393 h -0.04 V 6.423 h -3.919 v 15.886 h 3.919 v -6.891 h 0.04 l 5.057,6.891 h 5.079 L 57.529,13.944 63.528,6.423 H 58.669 Z M 71.709,6.423 H 67.79 v 15.886 h 3.919 z M 86.698,7.307 C 85.36,6.506 83.499,6 81.98,6 c -3.021,0 -5.198,2.107 -5.198,5.33 0,3.076 1.619,3.751 4.078,4.488 0.839,0.253 2.38,0.653 2.38,1.813 0,1.116 -0.98,1.6 -1.9,1.6 -1.34,0 -2.498,-0.738 -3.478,-1.644 l -1.679,3.329 c 1.539,1.138 3.399,1.811 5.298,1.811 1.52,0 3.1,-0.441 4.281,-1.494 1.197,-1.075 1.557,-2.699 1.557,-4.277 0,-2.571 -1.619,-3.688 -3.718,-4.342 l -1,-0.315 c -0.68,-0.231 -1.74,-0.59 -1.74,-1.516 0,-0.886 0.96,-1.329 1.68,-1.329 0.96,0 1.879,0.422 2.6,1.054 z m 9.039,5.246 v -6.13 h -3.92 v 15.886 h 3.92 v -6.511 h 5.658 v 6.511 h 3.918 V 6.423 h -3.918 v 6.13 z m -85.141,29.418 0.98,2.76 h 4.178 L 10.077,28.844 H 5.797 L 0,44.731 h 4.158 l 1.039,-2.76 z M 9.537,38.811 H 6.278 l 1.619,-5.057 h 0.041 z m 13.008,-9.967 h -3.918 v 15.887 h 3.918 z m 12.492,9.377 c 2.139,-0.4 3.299,-2.297 3.299,-4.486 0,-3.393 -2.26,-4.891 -5.239,-4.891 h -5.856 v 15.887 h 3.918 v -6.109 h 0.04 l 3.699,6.109 h 4.878 z m -3.878,-6.215 h 0.38 c 1.28,0 2.719,0.254 2.719,1.98 0,1.729 -1.438,1.98 -2.719,1.98 h -0.38 z m 15.876,-3.162 h -3.919 v 15.887 h 8.617 v -3.498 h -4.698 z m 12.149,0 h -3.919 v 15.887 h 3.919 z m 4.877,15.887 h 3.918 v -9.733 h 0.04 l 7.178,9.733 h 3.919 V 28.844 h -3.919 v 9.715 h -0.04 L 67.979,28.844 H 64.061 Z M 92.753,32.342 v -3.498 h -8.577 v 15.887 h 8.577 v -3.498 h -4.658 v -2.739 h 4.418 v -3.496 h -4.418 v -2.656 z m 14.332,-2.613 c -1.338,-0.799 -3.197,-1.305 -4.717,-1.305 -3.02,0 -5.197,2.107 -5.197,5.33 0,3.076 1.619,3.752 4.078,4.488 0.84,0.252 2.379,0.652 2.379,1.811 0,1.117 -0.979,1.604 -1.9,1.604 -1.338,0 -2.498,-0.738 -3.477,-1.645 l -1.68,3.328 c 1.539,1.139 3.398,1.812 5.297,1.812 1.521,0 3.1,-0.441 4.279,-1.494 1.199,-1.076 1.561,-2.699 1.561,-4.277 0,-2.57 -1.623,-3.689 -3.719,-4.342 l -1.002,-0.316 c -0.678,-0.23 -1.738,-0.59 -1.738,-1.516 0,-0.885 0.959,-1.328 1.68,-1.328 0.959,0 1.879,0.422 2.6,1.055 z"
     id="path2143" />
  <path
     d="m 122.313,25.477 c 0,-13.466 10.357,-24.383 23.137,-24.383 12.777,0 23.135,10.917 23.135,24.383 0,13.465 -10.357,24.381 -23.135,24.381 -12.779,0 -23.137,-10.916 -23.137,-24.381 z"
     fill="none"
     stroke="#cf4037"
     stroke-width="2.188"
     stroke-miterlimit="2.613"
     id="path2145" />
  <path
     d="M 152.435,20.131 C 151.369,12.575 145.14,8.844 141.249,6.609 c -3.611,-2.073 -6.844,-3.015 -6.922,-2.772 4.107,3.377 6.744,8.638 6.744,14.549 0,9.693 -7.096,17.64 -16.111,18.382 l 0.57,0.9 c 11.541,-1.838 42.426,-7.701 42.426,-7.701 l 0.082,-0.689 -18.738,-0.656 c 2.068,-2.235 3.484,-6.029 3.135,-8.491 z"
     fill-rule="evenodd"
     clip-rule="evenodd"
     fill="#cf4037"
     id="path2147" />
</svg>
